<?xml version="1.0" encoding="utf-8"?>
<!-- Generator: Adobe Illustrator 25.0.1, SVG Export Plug-In . SVG Version: 6.00 Build 0)  -->
<svg version="1.1" id="Слой_1" xmlns="http://www.w3.org/2000/svg" xmlns:xlink="http://www.w3.org/1999/xlink" x="0px" y="0px"
	 viewBox="0 0 841.89 595.28" style="enable-background:new 0 0 841.89 595.28;" xml:space="preserve">
<style type="text/css">
	.st0{fill:#F49C13;stroke:#000000;stroke-width:2;stroke-miterlimit:10;}
	.st1{fill:#2C3E50;stroke:#000000;stroke-width:2;stroke-miterlimit:10;}
	.st2{fill:none;stroke:#000000;stroke-width:2;stroke-miterlimit:10;}
</style>
<path class="st0" d="M70.88,227.46l-26.36,67.89C42.35,300.96,46.48,307,52.5,307h0c3.68,0,6.95-2.36,8.12-5.85l2.43-7.3
	c1.16-3.49,4.43-5.85,8.12-5.85h20.77c3.63,0,6.87,2.29,8.07,5.72l2.65,7.55c1.2,3.43,4.44,5.72,8.07,5.72h0.89
	c6.03,0,10.17-6.07,7.97-11.68l-26.62-67.89C91.68,224.16,88.52,222,85,222h-6.14C75.33,222,72.16,224.17,70.88,227.46z"/>
<path class="st0" d="M136,248.75v54.5c0,2.07,1.68,3.75,3.75,3.75h39.94c0.56,0,1.1-0.12,1.61-0.36
	c4.25-2.02,23.43-12.45,5.47-28.16c-1.55-1.36-1.69-3.72-0.33-5.27c4.79-5.47,12.56-17.92-4.57-27.73c-0.56-0.32-1.2-0.48-1.84-0.48
	h-40.27C137.68,245,136,246.68,136,248.75z"/>
<path class="st1" d="M153,261.07v3.69c0,2.8,2.27,5.07,5.07,5.07h8.65c0.66,0,1.3-0.13,1.91-0.37c3.65-1.49,15.56-7.22-0.12-13.15
	c-0.56-0.21-1.16-0.31-1.76-0.31h-8.69C155.27,256,153,258.27,153,261.07z"/>
<path class="st1" d="M169.21,281.65c16.84,8.28,3.58,13.45-0.36,14.71c-0.62,0.2-1.27,0.3-1.92,0.3h-7.63c-3.48,0-6.3-2.82-6.3-6.3
	v-3.07c0-3.48,2.82-6.3,6.3-6.3h7.11C167.38,281,168.34,281.23,169.21,281.65z"/>
<path class="st1" d="M80.59,247.23l-7.91,23.72c-0.34,1.01,0.41,2.05,1.48,2.05h16.61c1.08,0,1.84-1.08,1.46-2.1l-8.7-23.72
	C83.03,245.8,81.06,245.83,80.59,247.23z"/>
<path class="st0" d="M202.17,248.2v6.66c0,1.73,1.41,3.14,3.14,3.14h12.72c1.73,0,3.14,1.41,3.14,3.14v43.56
	c0,1.73,1.41,3.14,3.14,3.14h10.72c1.73,0,3.14-1.41,3.14-3.14v-42.56c0-1.73,1.41-3.14,3.14-3.14h12.56c1.73,0,3.14-1.41,3.14-3.14
	v-6.78c0-1.71-1.37-3.11-3.08-3.14l-48.56-0.89C203.61,245.03,202.17,246.44,202.17,248.2z"/>
<path class="st2" d="M296,257"/>
<ellipse class="st0" cx="295" cy="276.5" rx="31" ry="32.5"/>
<ellipse class="st1" cx="296" cy="277.5" rx="14" ry="19.5"/>
<path class="st0" d="M388.25,223h51.4c1.85,0,3.35,1.5,3.35,3.35v64.8c0,1.85,1.5,3.35,3.35,3.35l0,0c1.84,0,3.33,1.48,3.35,3.32
	l0.26,25.8c0.02,1.86-1.49,3.38-3.35,3.38h-7.33c-1.83,0-3.32-1.46-3.35-3.29l-0.21-11.42c-0.03-1.83-1.52-3.29-3.35-3.29h-45.03
	c-1.85,0-3.35,1.5-3.35,3.35v11.3c0,1.85-1.5,3.35-3.35,3.35h-8.13c-1.85,0-3.35-1.5-3.35-3.35v-25.8c0-1.71,1.29-3.15,3-3.33
	l2.86-0.3c1.24-0.13,2.3-0.93,2.76-2.09c1.82-4.57,6.22-16.6,6.22-26.12c0-9.63,0.64-31.5,0.9-39.76
	C384.95,224.43,386.44,223,388.25,223z"/>
<path class="st1" d="M405.16,237h17.16c1.85,0,3.35,1.5,3.35,3.35v50.47c0,1.85-1.5,3.35-3.35,3.35h-23.45
	c-2.24,0-3.84-2.15-3.21-4.3c2.32-7.94,6.77-25.05,5.39-35.58c-0.03-0.2-0.03-0.39-0.02-0.59l0.8-13.55
	C401.92,238.38,403.39,237,405.16,237z"/>
<path class="st0" d="M503.39,289.45l10.28,1.93c1.79,0.33,2.81,2.25,2.07,3.91c-2.23,4.97-7.61,13.91-17.59,14.71
	c-0.09,0.01-0.19,0.01-0.29,0.01h-14.89c-0.21,0-0.42-0.02-0.62-0.07c-2.7-0.62-21.27-5.67-20.34-27.93l-0.03-15.89
	c0-0.36,0.06-0.71,0.2-1.05c1.25-3.1,8.38-19.16,22.83-20.07c0,0,16.87-0.99,22.93,6.91c0.05,0.06,0.1,0.11,0.17,0.15
	c0.97,0.56,9.17,5.9,9.86,27.05c0.05,1.59-1.24,2.9-2.82,2.9h-34.1c-1.71,0-3.03,1.51-2.8,3.2c0.59,4.29,2.69,11.49,10.11,12.44
	c0,0,8.34,2.04,11.93-6.49C500.78,289.91,502.08,289.2,503.39,289.45z"/>
<path class="st1" d="M479.77,272h20.02c0.88,0,1.57-0.76,1.5-1.64c-0.28-3.53-1.94-11.58-11.29-12.36c0,0-9.19-0.92-11.71,12.21
	C478.11,271.14,478.83,272,479.77,272z"/>
<path class="st0" d="M525,249.68v5.73c0,1.98,1.6,3.58,3.58,3.58h11.67c1.98,0,3.58,1.6,3.58,3.58v42.67c0,1.98,1.6,3.58,3.58,3.58
	h9.5c1.98,0,3.58-1.6,3.58-3.58v-41.8c0-1.99,1.62-3.6,3.61-3.58l12.27,0.1c1.99,0.02,3.61-1.59,3.61-3.58v-5.4
	c0-1.94-1.55-3.53-3.49-3.58l-47.83-1.3C526.66,246.05,525,247.67,525,249.68z"/>
<path class="st0" d="M592.27,263.61l11.21,2.1c0.91,0.17,1.83-0.15,2.43-0.85c2.9-3.4,12.13-12.48,18.82,0.35
	c0.74,1.42-0.02,3.17-1.56,3.64c-7.52,2.27-27.55,8.34-29.17,9.15c-1.99,1-14.21,21.79,6.52,31.85c0.21,0.1,0.44,0.18,0.67,0.22
	c2.36,0.45,15.82,2.64,23-4.39c1.38-1.35,3.73-0.67,4.25,1.19c0.1,0.35,0.19,0.72,0.29,1.13c0.28,1.16,1.32,1.99,2.51,1.99h10.58
	c1.84,0,3.09-1.86,2.39-3.56c-0.99-2.4-2.14-5.66-2.52-8.64c-0.01-0.11-0.02-0.22-0.02-0.33l-0.65-41.51
	c-0.01-0.65-0.26-1.27-0.71-1.74c-2.09-2.17-8.93-8.14-21.06-8.22c-0.16,0-0.32-0.02-0.48-0.05c-2.15-0.43-19.32-3.29-28.32,13.91
	C589.65,261.4,590.56,263.29,592.27,263.61z"/>
<path class="st1" d="M625.48,284.8l0.41,4.08c0.09,0.89-0.09,1.78-0.52,2.56c-1.25,2.28-4.67,6.44-12.86,6.22
	c-0.49-0.01-0.97-0.11-1.42-0.29c-2.48-0.97-9.81-4.72-2.11-13.29c0.63-0.7,1.47-1.17,2.39-1.36l8.9-1.78
	C622.8,280.44,625.22,282.23,625.48,284.8z"/>
<path class="st0" d="M668.9,247h45.95c2.2,0,3.98,1.78,3.98,3.98v54.54c0,2.2-1.78,3.98-3.98,3.98h-8.72
	c-2.19,0-3.97-1.77-3.98-3.96l-0.14-40.76c-0.01-2.12-1.67-3.86-3.79-3.96l-13.04-0.62c-2.28-0.11-4.18,1.71-4.17,3.99l0.15,33.15
	c0,0.24-0.02,0.48-0.06,0.72c-0.38,2.13-2.56,12.47-9.44,12.69c-7.67,0.25-17.17,0-17.17,0v-8.6c0-2.06,1.58-3.78,3.63-3.96l2.3-0.2
	c2.03-0.18,3.59-1.85,3.63-3.88l0.85-43.2C664.97,248.73,666.73,247,668.9,247z"/>
<path class="st0" d="M737.5,251.47v53.18c0,2.31,1.88,4.19,4.19,4.19h9.79c1.46,0,2.82-0.76,3.58-2.01l13.84-22.78
	c2.2-3.62,7.77-2.06,7.77,2.18v20.15c0,2.39,1.99,4.29,4.38,4.18l7.96-0.36c2.24-0.1,4-1.95,4-4.18v-53.44
	c0-2.26-1.8-4.12-4.06-4.19l-9.58-0.3c-1.47-0.05-2.85,0.68-3.65,1.91l-15.01,23.14c-2.27,3.5-7.7,1.89-7.7-2.28V248l-11.04-0.71
	C739.54,247.13,737.5,249.05,737.5,251.47z"/>
</svg>
