<?xml version="1.0" encoding="utf-8"?>
<!-- Generator: Adobe Illustrator 25.0.1, SVG Export Plug-In . SVG Version: 6.00 Build 0)  -->
<svg version="1.1" id="Слой_1" xmlns="http://www.w3.org/2000/svg" xmlns:xlink="http://www.w3.org/1999/xlink" x="0px" y="0px"
	 viewBox="0 0 1200 1191" style="enable-background:new 0 0 1200 1191;" xml:space="preserve">
<style type="text/css">
	.st0{fill:#F39C12;stroke:#000000;stroke-miterlimit:10;}
</style>
<path class="st0" d="M424.5,30.1c-3.4,1-5.5,3.3-9.4,10.9c-3.4,6.4-4.9,8.1-11.3,12c-7,4.3-7.7,7.4-4.8,23.7
	c1.2,7,2.4,13.7,2.6,14.8c0.5,1.9-0.5,2.3-9.3,4.4c-57.8,13.9-121.2,49.9-165.3,94c-9.8,9.8-8.5,9.1,2.3-1.3
	c31.9-30.4,79.1-60.2,120.7-76.1c17.8-6.8,50.4-16.4,51.6-15.2c0.2,0.2,1.5,6.7,2.9,14.3c1.9,10.8,6.6,34.4,7.8,39.6
	c0.1,0.3-1.3,1.7-3.2,3c-9.1,6.2-9.4,20.7-0.7,28.8c2.3,2.1,3.8,2.5,8.6,2.5h5.9l8.2,11c12.2,16.3,27.4,35.1,34.6,42.7
	c4.2,4.4,6.3,7.4,6.3,9.1c0,2.4-0.2,2.4-9.7,3.1c-55.8,3.9-105.2,23.9-149.3,60.5c-9.2,7.6-32.2,31.1-39.4,40.1
	c-43.1,54.4-68.5,120.3-76.7,198.5c-0.6,6-1.5,23.6-2,39s-0.9,29.1-1,30.5c0,1.5,0.9,3.3,2.8,4.8c1.5,1.3,2.3,2.1,1.6,1.8
	c-0.6-0.4-1.4-0.3-1.6,0.1c-0.7,1.1,1.9,25.5,4.3,39.9c5.6,34.8,15.7,71.3,28.1,101.9c2.7,6.6,4.9,13.3,4.9,14.9
	c0,1.8,1.1,3.9,3.3,6.1c1.8,1.8,4.2,5.3,5.2,7.7c5.4,12.2,31,54.7,45.3,75.3c17.6,25.2,49.8,57.8,78.2,79.1
	c59.9,44.9,132.2,67.8,197,62.4c50.2-4.1,94.2-20.4,133.5-49.6c67.4-49.8,112.6-130.6,127-227.1c5.6-37.6,5.9-85.3,0.9-123.1
	l-0.7-5.4l2.9,1.5c4.5,2.3,35.5,14.4,49.4,19.3c6.9,2.4,19,6.8,26.9,9.6l14.3,5.3l2,5.2c1.8,4.9,5.2,8.4,4.1,4.2
	c-0.4-1.3,0-1.9,1-1.9c2.5,0,3.1,1.9,1.2,4c-1.6,1.7-1.5,1.9,0.8,3.5c6.4,4.2,14.8,3.5,19.1-1.5l2.3-2.8l6.9,1.9
	c6.6,1.9,12.1,2,19.2,0.2l2.2-0.5v28.8c0,61.5-6.7,112.3-21.7,164.8c-42.7,150.1-139.7,260-266.8,302.5
	c-54.6,18.2-113.9,22.3-177,12.1c-14.3-2.3-33-6.8-47.5-11.4c-5.8-1.9-13.2-4.2-16.5-5.1c-5.8-1.6-27.5-10.2-38.4-15.1
	c-2.9-1.4-5.5-2.3-5.7-2.1c-0.8,0.7,25,11.9,40.1,17.4c18.1,6.7,55.9,16.4,74.5,19.2c32.2,4.9,71.2,6.5,96.6,4
	c42.8-4.1,84.1-16.2,126.1-36.8c17.3-8.5,28.9-15.1,41.2-23.4c53.6-36,99.8-87.2,133.9-148.2c7.3-13.1,24.1-47.8,26.7-55.2
	c1-2.9,2.3-4.9,2.8-4.6c0.6,0.4,0.7,0.1,0.3-0.6c-0.8-1.2-0.1-3.4,3.5-11.6c0.9-2.2,2.8-7.3,4-11.3c2.2-6.8,4.1-8.8,5.3-6
	c0.2,0.7,0.4,0.4,0.4-0.7c-0.1-1.1,0-3.1,0.1-4.5c0.1-2,0.3-2.2,1.1-1s1,1.2,1,0.1c0-0.8,0.3-1.2,0.6-0.9c0.6,0.7-1.1,5.7-8.9,27.3
	c-13.1,35.8-35.7,79.1-56,107.3c-3.7,5.1-6.7,9.6-6.7,10.1c0,0.4-0.8,1.6-1.8,2.7c-1,1-3.6,4.2-5.8,6.9
	c-28.4,36.2-62.3,67.3-99.5,91.4c-6.8,4.4-12,8.1-11.6,8.1c0.9,0,18.4-8.7,27.7-13.8c11.2-6.1,37-23.6,48.4-32.8
	c32.9-26.5,60.1-56.1,85.8-93.4c12.6-18.3,31.1-51.3,38.8-69c1.8-4.1,4.5-10.2,6-13.5c2.5-5.4,9.7-24.3,14.5-38.2
	c1-2.9,2.3-4.9,2.8-4.6c0.6,0.3,0.7,0.1,0.3-0.6c-0.7-1.1,2.1-10.1,3.5-11.1c0.3-0.3,1-2,1.4-3.9c0.4-2,1.4-3.5,2.6-3.8
	c1-0.3,1.9-0.9,1.9-1.3c0-0.5,0.3-1.6,0.7-2.6c0.4-1.1,0.3-1.5-0.4-1.1c-0.7,0.5-0.9,0-0.6-1.3c0.3-1.1,1-1.7,1.6-1.3
	c0.6,0.3,0.7,0.1,0.3-0.5s0.1-2.8,0.9-4.9c4.1-9.7,12.2-49.8,15.9-78.8c3.6-28.5,4.9-52.4,4.1-76.7l-0.7-20.6l4.8-0.7
	c3.2-0.4,10.7-3.6,21.4-9c18.1-9.1,39.1-17.9,51.4-21.5c4.6-1.4,8.3-3.1,9-4.2c0.6-1,2.8-2.3,4.9-2.9c2.1-0.6,5.5-2.5,7.4-4.3
	c3.1-2.8,3.5-3.8,3.6-8.1c0-3.2-0.8-6.8-2.2-10c-2.2-4.8-2.3-6.4-2.6-34c-0.8-67.6-4.9-101.8-17.1-144.9
	c-5.5-19.5-6.4-21.6-11.4-28.2c-2.9-3.8-5.6-6-10.6-8.5c-7.8-4-7.3-3.1-21.9-31.2c-8.7-16.8-11.6-21.5-15.3-24.8
	c-2.5-2.2-5.2-3.7-5.9-3.4c-0.8,0.2-1.2,0.1-0.9-0.3c0.7-1.2-19.3-10.5-21-9.8c-0.8,0.3-1.3,0.2-1-0.2c0.3-0.5-1.2-1.4-3.2-2.1
	c-2-0.8-7.1-2.9-11.2-4.8c-4.1-1.8-8-3.1-8.8-2.8c-0.7,0.2-1,0-0.7-0.5c0.3-0.6,0-1-0.9-1c-0.8,0-1.6-0.5-1.8-1.1s-1.5-1.2-3-1.2
	c-1.4-0.1-2.4-0.6-2-1.1c0.3-0.5-0.2-0.7-1.1-0.3c-1,0.3-1.7,0.3-1.7-0.2c0-0.4-1.9-1.4-4.1-2.1c-2.3-0.8-6.2-2.9-8.8-4.8
	c-6.4-4.8-25.1-24.1-25.1-26c0-2.9-8.3-17.8-13.6-24.4c-8.9-11-24.5-23.1-27.6-21.2c-0.7,0.4-0.8,0.3-0.4-0.4
	c0.4-0.7,0.3-1.2-0.3-1.2c-0.5,0-1.7-0.3-2.7-0.7c-1.3-0.5-1.5-0.3-0.9,0.7c1.2,1.9-0.8,0.9-5.6-3c-6.6-5.3-55.9-54.4-59.8-59.6
	c-1.8-2.4-4.4-7.3-5.7-10.8c-1.3-3.6-4.4-10.8-7-16.2c-3.3-6.8-5.1-12.1-6-17.5c-1.6-10.1-5-17.5-10.7-23.3
	c-2.5-2.5-4.9-4.6-5.3-4.6c-0.5,0-0.3,0.5,0.4,1.2c2.2,2.2,1.3,2.7-2,1.1c-1.7-0.9-5.4-1.8-8.2-2.1c-3.3-0.2-8.5-2-14.6-4.9
	c-12-5.7-32.5-13.1-41-14.8c-3.6-0.7-13.1-3.5-21.1-6.4c-13.7-4.8-15.3-5.1-24.3-5.1c-6.5,0-9.6,0.4-9.6,1.1c0,0.9-6,1-22.5,0.7
	c-12.3-0.3-24.4-0.2-26.7,0.3c-17,3.3-21.9,3.9-25.6,3.1c-3.7-0.9-20.6,0.9-22,2.2c-0.6,0.6,4.5,2.9,15.6,7.1c4,1.5,7.8,3.2,8.5,3.9
	s1.7,1.1,2.3,0.9c0.6-0.2,1.7,0.3,2.4,1.2c0.7,0.8,0.9,1.5,0.4,1.6s0.2,0.5,1.6,0.9c2.2,0.7,2.1,0.8-1.2,0.9
	c-2.7,0.1-3.8,0.6-3.8,1.6c0,0.8,0.9,1.5,2.1,1.5c1.1,0,1.8,0.4,1.4,1c-0.3,0.5-1.2,0.7-1.9,0.4c-0.8-0.3-1.7-0.1-2.1,0.5
	c-1.1,1.8-7.8,1.2-10.5-0.9c-1.4-1.1-3.2-2-4-2c-1,0-0.7,0.7,1,2c2.9,2.3,2,2.6-1.8,0.6c-4.6-2.3-18.4-6.5-25.9-7.8
	c-3.9-0.6-7-1.4-6.8-1.7s-3.5-0.6-8.1-0.6s-8.4-0.4-8.4-0.9c0-0.4-0.7-0.6-1.4-0.3c-0.8,0.3-2.9-0.1-4.6-0.9
	c-8.9-4.5-38-13.9-61.5-19.9C456.6,31.5,431.2,28.4,424.5,30.1z M433.6,45c0.8,0,1.4,0.4,1.4,1s-1.8,0.7-4.2,0.4
	c-3.9-0.5-4.7-0.2-8,2.9c-3.1,2.8-3.8,4.1-3.8,7.3c0,2.1-0.5,5.9-1.1,8.3c-0.9,4.1-0.8,4.6,1.4,6.7c1.3,1.2,3.4,3.8,4.6,5.8
	c1.8,2.8,2.9,3.6,5.1,3.6c1.6,0,3.2,0.5,3.5,1.1c0.4,0.6,1.3,0.8,2.1,0.5c1.9-0.7,1.8,0.3-0.2,2.5c-1.3,1.4-2.1,1.6-4.1,0.8
	c-1.4-0.5-2.8-0.7-3.1-0.4c-0.3,0.3-1.3-0.8-2.3-2.5c-1.1-1.7-3-3.2-4.6-3.6c-1.5-0.3-3.3-0.7-3.9-0.9c-1.7-0.5-4.4-9.2-4.4-14.2
	c0-7.6,2-13.1,6.2-17.4C422,43,424,42.1,424,44c0,0.5,0.7,1,1.6,1c0.8,0,1.3-0.4,0.9-0.9c-0.3-0.5,0.7-1.1,2.2-1.3
	c1.6-0.2,2.9,0.2,3.1,0.9C432,44.4,432.8,45,433.6,45z M702,45.1c0,0.6-0.4,0.7-1,0.4c-0.5-0.3-1-1.1-1-1.6c0-0.6,0.5-0.7,1-0.4
	C701.6,43.8,702,44.6,702,45.1z M607,51.1c0,0.5-0.4,0.9-1,0.9c-0.5,0-1-0.7-1-1.6c0-0.8,0.5-1.2,1-0.9
	C606.6,49.8,607,50.5,607,51.1z M437.2,60.8c0.3,2,1.1,5.8,1.9,8.5c1.2,4.2,1.1,4.9-0.3,6.3c-1.5,1.5-1.9,1.3-5.2-2.2
	c-3.8-4.1-3.9-4.3-3.6-8.9c0.2-3.3,3.9-8.4,5.7-7.8C436.3,56.9,437,58.8,437.2,60.8z M751.6,60.1c1.9,2.2,1.9,2.2-0.3,1
	c-2.4-1.2-3.9-3.1-2.5-3.1C749.3,58,750.5,59,751.6,60.1z M405.7,63.2c-0.3,0.7-0.5,0.2-0.5-1.2s0.2-1.9,0.5-1.3
	C405.9,61.4,405.9,62.6,405.7,63.2z M549.8,66.7c1.2,1.3,2.2,3.1,2.2,3.9c0,1.9-8-3.1-11-6.9l-2.2-2.8l4.4,1.7
	C545.5,63.5,548.5,65.3,549.8,66.7z M768.5,68.5c14.2,6.8,19.5,9.9,19.5,11.7c0,0.5-1.5,0-3.2-1.1c-1.8-1.2-9.5-5.3-17-9.2
	C755.9,64,752.6,62,754.4,62C754.6,62,760.9,64.9,768.5,68.5z M576,65.6c3,0.9,10.5,3.8,16.5,6.6c6.1,2.7,15.5,7,21,9.5
	c9.5,4.4,14.5,7.6,13.4,8.8c-0.3,0.3-2.3-0.4-4.5-1.5c-6.9-3.6-33.3-16-33.9-16c-0.4,0-3.7-1.4-7.5-3c-4-1.8-8.6-3-11-3
	c-4.4,0-8-1.4-8-3.1C562,62.7,567.7,63.4,576,65.6z M529.6,66.9c1.5,1.2,3.2,2.1,3.9,2.1c0.6,0,2.2,1.8,3.4,4.1
	c4.3,7.6,2.6,26.5-2.9,32c-3.1,3.1-7.4,5.2-10.9,5.3c-8.3,0.2-19-8.9-17.5-14.8c0.4-1.7,0-2.7-1.2-3.4c-1.5-0.8-1.6-1.9-1.1-7.5
	c0.9-9.4,5.1-15.8,12.7-19.2C520.4,63.6,526.1,64.2,529.6,66.9z M627.5,70c4,3.2,4,4,0,1.4c-1.3-0.9-2.8-1.3-3.3-1
	c-1.4,0.8-7.3-1.4-6.6-2.5C618.7,66,623.8,67.1,627.5,70z M615.3,70.7c-0.7,0.2-1.9,0.2-2.5,0c-0.7-0.3-0.2-0.5,1.2-0.5
	S615.9,70.4,615.3,70.7z M615.3,72.7c0.3,0.5-1.1,0.9-3.2,1c-2.7,0.1-3.1-0.1-1.6-0.7C613.1,71.9,614.8,71.8,615.3,72.7z
	 M620.7,72.6c-0.3,0.3-1.2,0.4-1.9,0.1c-0.8-0.3-0.5-0.6,0.6-0.6C620.5,72,621.1,72.3,620.7,72.6z M642.1,78.2
	c4.4,2.4,7.6,4.4,7.1,4.6c-0.5,0.1-4.7-1.8-9.3-4.3c-4.6-2.4-7.8-4.5-7.1-4.5C633.6,74,637.7,75.9,642.1,78.2z M581.2,78.6
	c0.5,4-0.7,5.6-1.6,2.1c-0.8-3.2-0.7-5.7,0.3-5.7C580.4,75,581,76.6,581.2,78.6z M578,83.3c0,1.8-0.2,1.9-1,0.7
	c-1.3-2-1.3-4.3,0-3.5C577.6,80.8,578,82.1,578,83.3z M481,99.1c3.9,7.7,8.2,15.9,9.6,18.2c9.1,14.7,15.1,23,17.9,24.7
	c1.7,1.1,4,2.9,5.1,4.1l1.9,2.2l-3.6-0.7c-2.8-0.5-4.6-0.1-7.3,1.5c-2,1.1-3.6,2.5-3.6,3s-0.6,0.9-1.3,0.9c-0.8,0-1.9,1.2-2.6,2.6
	c-1,2.2-0.9,3,0.5,4.5c2.1,2.3,0.7,2.5-4.1,0.5c-2-0.9-4.1-2.8-5.1-4.7c-0.9-1.8-2.2-3.8-2.8-4.4c-7.4-7.5-35-36.8-37.2-39.4
	c-1.5-1.9-4.6-4.7-6.7-6.2c-3.9-2.8-4-2.8-6.8-1.2c-1.6,1-2.9,2.3-2.9,3s-0.3,1.3-0.6,1.3c-1.1,0-6.4-6.2-6.4-7.5
	c0-1.6,5.5-6.3,10.9-9.4l4-2.2l3.5,3.2c2,1.7,3.6,3.8,3.6,4.5c0,1.5,16.5-6.7,22.5-11.1c1.7-1.3,3.3-2.1,3.8-1.8
	C473.7,84.9,477.2,91.4,481,99.1z M569.5,86c0.3,0.5,0.1,1-0.4,1c-0.6,0-1.1-0.5-1.1-1c0-0.6,0.2-1,0.4-1
	C568.7,85,569.2,85.4,569.5,86z M498.7,90.2c-0.3,0.7-0.5,0.2-0.5-1.2s0.2-1.9,0.5-1.3C498.9,88.4,498.9,89.6,498.7,90.2z M553,91.2
	c0,1-0.4,1.8-1,1.8c-0.5,0-1-1.5-1-3.3c0-2.4,0.3-2.8,1-1.7C552.5,88.8,553,90.3,553,91.2z M556,89.6c0,0.8,0.7,2.2,1.5,3
	c0.8,0.9,1.5,2,1.5,2.5s-0.7,0.9-1.5,0.9s-1.5-0.9-1.5-1.9c0-1.1-0.4-2.3-1-2.6c-0.5-0.3-1-1.3-1-2.1c0-0.8,0.5-1.4,1-1.4
	C555.6,88,556,88.7,556,89.6z M578.8,90.2c-0.2,1.3-0.7,2.3-1.3,2.3c-0.5,0-1.1-1-1.3-2.3c-0.2-1.5,0.2-2.2,1.3-2.2
	S579,88.7,578.8,90.2z M574,91.1c0,0.6-0.4,0.7-1,0.4c-0.5-0.3-1-1.1-1-1.6c0-0.6,0.5-0.7,1-0.4C573.6,89.8,574,90.6,574,91.1z
	 M805.6,117.1c5.2,10.5,9.3,19.3,9,19.6c-0.2,0.3-4.6-8-9.7-18.4c-5-10.3-9.4-19.1-9.6-19.6c-0.2-0.4-0.2-0.7,0.1-0.7
	S800.3,106.6,805.6,117.1z M630,106.6c0.6,1.4,1,3,1,3.5c0,1.9-1.8-0.1-2.8-3.1C626.8,103.3,628.6,102.9,630,106.6z M649.7,107.2
	c-0.3,0.7-0.5,0.2-0.5-1.2s0.2-1.9,0.5-1.3C649.9,105.4,649.9,106.6,649.7,107.2z M619.5,107c0.3,0.5-0.1,1-1,1s-1.3-0.5-1-1
	c0.3-0.6,0.8-1,1-1S619.2,106.4,619.5,107z M634,109.1c0,1.1-0.4,1.7-1,1.4c-0.5-0.3-1-1.5-1-2.6s0.5-1.7,1-1.4
	C633.6,106.8,634,108,634,109.1z M659.2,118.2c1.1,1.6,1.6,2.8,1.1,2.8c-1.1,0-8.3-10.6-8.3-12.2c0-0.6,1.2,0.7,2.6,2.8
	C656.1,113.7,658.1,116.7,659.2,118.2z M698.8,108.7c-1,0.2-2.8,0.2-4,0c-1.3-0.2-0.5-0.4,1.7-0.4
	C698.7,108.2,699.7,108.4,698.8,108.7z M686.8,109.7c-1,0.2-2.8,0.2-4,0c-1.3-0.2-0.5-0.4,1.7-0.4
	C686.7,109.2,687.7,109.4,686.8,109.7z M679.3,110.7c-0.7,0.2-1.9,0.2-2.5,0c-0.7-0.3-0.2-0.5,1.2-0.5S679.9,110.4,679.3,110.7z
	 M622.1,115.1c4.4,4.7,4,6.9-1.1,6.1c-2.3-0.3-3-0.9-2.5-1.9c0.3-0.9,0.1-2.1-0.5-2.8c-0.9-1.1-0.6-1.2,1.2-0.9l2.3,0.5l-2.2-1.7
	c-2.2-1.5-3.1-3.4-1.7-3.4C618,111,620,112.9,622.1,115.1z M637,114.6c0,1.6-1.6,1.9-2.5,0.4c-0.8-1.3,0.4-3.2,1.6-2.5
	C636.6,112.9,637,113.8,637,114.6z M652,116.6c0,1.4-0.4,2.2-1,1.9c-0.5-0.3-1-1.7-1-3.1s0.4-2.2,1-1.9
	C651.6,113.8,652,115.2,652,116.6z M593.6,117.5c-0.6,2.4,1.1,6.5,2.6,6.5c0.5,0,0.8-0.8,0.9-1.8c0.1-0.9,0.6-0.2,1.1,1.5
	c0.9,2.7,1.3,3,2.2,1.8c1.6-2.1,14.9-2.8,18.4-0.9c1.5,0.8,3.4,1.4,4.4,1.4c1.4,0,1.4,0.4,0.5,2.4c-1.2,2.5-3,2.6-2.1,0.2
	c0.4-0.9-0.7-1.8-3.1-2.6c-3.3-1.1-4-1-6.6,0.9c-1.5,1.1-3.7,2.1-4.9,2.1c-1.6,0-2,0.6-2,3c0,3,2.3,6.1,6.6,8.7
	c1.9,1.2,1.9,1.2-0.2,1.2c-1.1,0.1-3-0.8-4.2-1.9c-2.4-2.2-4-2.7-2.3-0.7c0.6,0.8,1.2,2.4,1.4,3.8c0.3,1.7,1.2,2.5,3.3,2.9
	c2,0.4,2.5,0.8,1.6,1.3c-3,1.9-12.2-2.6-12.2-6c0-1.4,0.2-1.4,1.8,0c3.9,3.5,4.3,1.5,0.6-2.8c-1.5-1.7-2.4-2.2-2.1-1.3
	c0.7,2.1-1.9,1.4-2.7-0.8c-0.3-0.8-1.4-1.4-2.4-1.4c-1.5,0-2.1-0.9-2.6-3.8c-0.9-5.6-0.7-12.1,0.4-14.3
	C593.5,114.2,594.3,114.5,593.6,117.5z M579.2,121.2c-1.3,1.3-2.6-0.8-1.7-3c0.6-1.6,0.7-1.6,1.7,0.1
	C579.9,119.6,579.9,120.5,579.2,121.2z M558,121.1c0,1-0.4,1.9-0.9,1.9c-1.2,0-2.3-2.9-1.5-4.1C556.4,117.5,558,118.9,558,121.1z
	 M422.4,121.5c0.3,0.8,0.1,1.5-0.4,1.5c-0.6,0-1-0.7-1-1.5s0.2-1.5,0.4-1.5C421.6,120,422,120.7,422.4,121.5z M732.7,121.6
	c-0.3,0.3-1.2,0.4-1.9,0.1c-0.8-0.3-0.5-0.6,0.6-0.6C732.5,121,733.1,121.3,732.7,121.6z M581.8,125.9c0.4,2.8-1.3,2-2.1-0.9
	c-0.3-1.4-0.1-2,0.6-1.7C581,123.5,581.7,124.7,581.8,125.9z M557.9,129.3c0.1,1-0.3,1.6-0.8,1.3c-1.1-0.7-2-5.3-1.2-6.1
	C556.6,123.8,557.8,126.8,557.9,129.3z M587,127.6c1.6,4.8,0.4,5.6-1.5,1.1c-1.8-4.2-1.8-4.7-0.6-4.7
	C585.4,124,586.4,125.6,587,127.6z M575,126.4c0,0.8-0.4,1.8-1,2.1c-0.5,0.3-1-0.3-1-1.4c0-1.2,0.5-2.1,1-2.1
	C574.6,125,575,125.6,575,126.4z M664,129.3c0,0.5-0.7,0.4-1.5-0.3s-1.5-2-1.5-2.9c0.1-1.3,0.3-1.3,1.5,0.3
	C663.3,127.5,664,128.8,664,129.3z M617.8,126.9c1.1,0.7,1.1,0.9-0.1,1.4c-0.9,0.3-1.8-0.1-2.1-0.9
	C615,125.8,615.8,125.6,617.8,126.9z M555,131.5c0.7,2.5,1.7,4.8,2.1,5.1c0.5,0.3,0.9,1.2,0.9,2c0,3.7-4-2.9-5.4-8.9
	C551.5,125.1,553.7,126.7,555,131.5z M704.5,131c0.8,1.3-0.5,1.3-2.5,0c-1.3-0.8-1.3-1,0.2-1C703.1,130,704.2,130.4,704.5,131z
	 M616.4,133.6c0.5,1.4,0.4,1.5-0.9,0.4c-1.7-1.4-1.9-2-0.6-2C615.4,132,616.1,132.7,616.4,133.6z M712,135c2.4,1.3,2.9,1.9,1.7,2
	c-1.1,0-3-0.9-4.4-2C706.1,132.5,707.4,132.5,712,135z M619.9,138.6c0.3,1.6,0.1,1.7-1.3,0.5c-1.9-1.6-2.1-3.4-0.3-2.9
	C618.9,136.5,619.7,137.5,619.9,138.6z M671.9,146c0.5,2.5,1.2,5.4,1.7,6.5c0.7,1.8,0.6,1.8-0.8,0.7c-0.9-0.7-1.9-2.7-2.2-4.3
	c-1.8-9-1.8-9.4-0.7-8.4C670.5,141.1,671.4,143.6,671.9,146z M603,151.3c5.7,4,11.9,9.6,13.2,12.2c0.9,1.6,0.5,1.5-1.8-0.6
	c-1.6-1.4-4-3.6-5.4-4.8c-1.4-1.3-5.5-4-9.2-6.2s-8-5.1-9.5-6.4l-2.8-2.5l5.5,2.6C596,147.1,600.5,149.6,603,151.3z M569.5,146
	c0.3,0.5-0.7,1.2-2.2,1.6c-1.5,0.3-3.2,0.7-3.8,0.8c-0.5,0.2-1,1.1-1,2.2c0,1-0.8,2-1.7,2.2c-1.2,0.2-1.5-0.2-1.1-1.6
	c0.2-1.1-0.1-2.3-0.8-2.8c-0.9-0.5,0.3-1.2,3.6-2C569.2,144.8,568.8,144.9,569.5,146z M742,152.5c4.7,3,9.8,6.3,11.4,7.2
	c3.9,2.5,29.1,21.8,35.5,27.3c2.9,2.5,5.6,4.6,6.2,4.8c0.5,0.2,0.9,1.2,0.9,2.3s0.7,1.9,1.6,1.9c0.8,0,1.2,0.4,0.9,1
	c-1.1,1.7-2.4,1.1-3.1-1.4c-0.4-1.7-1.1-2.3-2.2-1.9c-1,0.4-1.3,0.2-0.8-0.5c0.4-0.7,0.2-1.2-0.6-1.2c-0.7,0-3.3-1.9-5.7-4.3
	c-2.5-2.3-4.1-3.6-3.7-3c0.5,0.9,0.2,1.1-0.8,0.7c-0.9-0.3-1.3-1-1-1.5s-0.2-0.6-1-0.3c-1.1,0.4-1.6,0-1.6-1c0-0.9-0.7-1.9-1.6-2.3
	c-0.8-0.3-3.3-2.2-5.5-4.1c-2.1-1.9-5-4.2-6.3-5.1c-1.3-0.9-5.4-3.7-9.1-6.4c-3.6-2.6-7-4.7-7.5-4.7c-0.6,0-1-0.4-1-0.9
	c0-0.4-3.4-3-7.5-5.6c-6.8-4.4-9-6.5-6.7-6.5C733.2,147,737.4,149.5,742,152.5z M559.4,165.1c3.9,1.1,8.5,2.5,10.2,3
	c4.3,1.3,8.2,1.1,9.1-0.4c1.4-2.1,5.9-3.9,8.1-3.3c3.3,1.1,7.2,4.6,7.2,6.5c0,1.7-4,4.4-6.9,4.5c-0.8,0.1-2.2,1.4-3.1,3.1
	c-2.2,4-3.8,4.1-8,0.5c-1.9-1.7-8.3-5.8-14.2-9.1C548,162.1,547.8,161.6,559.4,165.1z M629.6,166.7c-1,1-1.9-0.5-1-1.8
	c0.6-1.1,0.8-1.1,1.2,0C630,165.6,629.9,166.4,629.6,166.7z M619.4,167.6c0.3,0.8,0.2,1.2-0.4,0.9c-0.6-0.3-1-1-1-1.6
	C618,165.5,618.7,165.8,619.4,167.6z M635,168.5c0,1.6-3.4,3.8-4.3,2.8c-1-0.9,1.2-4.3,2.8-4.3C634.3,167,635,167.7,635,168.5z
	 M411,170.4c0,0.8-0.4,1.8-1,2.1c-0.5,0.3-1-0.3-1-1.4c0-1.2,0.5-2.1,1-2.1C410.6,169,411,169.6,411,170.4z M661.8,191.3
	c1.7,3.7,4,8,5.1,9.6c2.3,3.2,2.6,4.1,1.1,4.1c-0.5,0-2.4-2.4-4.1-5.3c-1.7-2.8-2.8-4.3-2.4-3.2c0.4,1.1,1,2.9,1.2,4
	c1.2,4.5-2.4-1.1-4.7-7.3c-2.6-7.1-2-9.8,0.6-3.1c1,2.3,1.9,3.8,2.1,3.2c0.3-0.7-0.3-2.6-1.2-4.3c-2.1-4.1-3.5-12.7-2.7-16.5
	c0.5-2.3,0.8-1.2,1.3,4.5C658.5,182.2,659.7,186.6,661.8,191.3z M407.7,174.6c-0.9,0.9-2.8-0.6-2.1-1.8c0.4-0.6,1-0.6,1.7,0.1
	C407.9,173.5,408.1,174.2,407.7,174.6z M415,177c0,0.5-0.2,1-0.4,1c-0.3,0-0.8-0.5-1.1-1c-0.3-0.6-0.1-1,0.4-1
	C414.5,176,415,176.4,415,177z M651.6,183.7c-1.2,1.2-2.9-1.5-2.1-3.4c0.7-1.7,0.8-1.6,1.8,0.5C651.8,182,652,183.3,651.6,183.7z
	 M647,182.5c0,0.8-0.4,1.5-1,1.5c-0.5,0-1-0.7-1-1.5s0.5-1.5,1-1.5C646.6,181,647,181.7,647,182.5z M708.5,189
	c1.1,1.4,0.3,1-1.8-0.9c-2-1.9-3.7-3.9-3.7-4.5C703,182.6,704.6,184.2,708.5,189z M654,188.1c0,1.1-0.4,1.7-1,1.4
	c-0.5-0.3-1-1.5-1-2.6s0.5-1.7,1-1.4C653.6,185.8,654,187,654,188.1z M779.4,187.5c-0.4,0.8-0.8,1.5-1,1.5s-0.4-0.7-0.4-1.5
	s0.4-1.5,1-1.5C779.5,186,779.7,186.7,779.4,187.5z M647,190.6c0,0.8-0.4,1.4-1,1.4c-0.5,0-1-0.9-1-2.1c0-1.1,0.5-1.7,1-1.4
	C646.6,188.8,647,189.8,647,190.6z M781,194.4c0,0.6-0.7,0.2-1.5-0.8c-0.8-1.1-1.5-2.5-1.5-3c0-0.6,0.7-0.2,1.5,0.8
	C780.3,192.5,781,193.9,781,194.4z M589.5,207.4c3,8.5,2.8,8.5-1.5-0.3c-2.2-4.6-4-8.7-4-9C584.1,196.4,587.9,202.9,589.5,207.4z
	 M512.5,212.5c5.2,5.1,1.9,13.5-5.4,13.5c-2.3,0-5.8,3.8-6.6,7.1c-1.1,4.5,1.2,10.8,4.8,12.9c1.8,1.1,3.7,2,4.4,2
	c2.7,0,7-5.1,8.8-10.5c2.1-6,2.8-6.9,6.2-7.9c1.7-0.5,2.9,0,4.9,1.9c3.1,3.1,3,6.5-0.5,15.8c-2.4,6.6-2.1,11.1,1.1,15.2
	c2.8,3.6,8.9,3.5,11.7-0.2c3-3.7,3.6-7.1,2.1-10.7c-1.9-4.5-2.3-10.1-1.1-12.5c1.5-2.7,7.1-2.9,9.4-0.3c3.9,4.3,6.1,15.2,4.6,22.5
	c-4,19.2-21.5,25.7-34,12.7c-2.6-2.6-5.2-6.3-5.8-8.3c-1.1-3.3-1.5-3.5-4.4-3c-8.3,1.3-17.6-4.6-21.8-14c-3.2-7.1-3.3-19.2-0.3-25.7
	c3.3-7,6.6-10,13.3-12.1C508.3,209.6,510,209.9,512.5,212.5z M594.4,211.6c0.3,0.9,0.6,2.5,0.6,3.7c0,2.7-1.6,1.1-2.5-2.6
	C591.7,209.8,593.3,208.8,594.4,211.6z M668.3,213.7c3.4,1.7,4.6,2.8,3.5,3.1c-1.9,0.4-6.9-2-8.7-4.2
	C661.2,210.4,662.3,210.6,668.3,213.7z M594.6,220.6c0.8,2,1.3,3.9,1,4.2c-0.5,0.4-3.6-5.8-3.6-7.3
	C592,215.9,593.3,217.5,594.6,220.6z M628.4,221.1c2,2.9,1.4,4-5.5,8.9c-6.2,4.6-6.5,5-4.9,8.1c0.9,1.6,0.7,1.9-1.4,1.9
	c-3.4,0-8.5-4.7-9.2-8.5c-0.5-2.8-0.2-3.2,5.1-6c3-1.7,7-3.8,8.8-4.7C625.4,218.5,626.6,218.5,628.4,221.1z M714.7,224.6
	c3.4,1.3,12,7,13.8,8.9c0.6,0.6,2.8,3,5,5.3c5.3,5.6,3,5.3-4.2-0.6c-7.9-6.4-14.6-11-21.8-14.7l-3-1.6l3.5,0.7
	C709.9,222.9,713,223.8,714.7,224.6z M815,226c0,0.5-0.2,1-0.4,1c-0.3,0-0.8-0.5-1.1-1c-0.3-0.6-0.1-1,0.4-1
	C814.5,225,815,225.4,815,226z M585.5,241c3.8,4.2,1.2,13-3.7,13c-1,0-3.1-1.2-4.5-2.6c-2.1-2.2-2.5-3.2-2-6.6
	c0.3-2.3,1.1-4.5,1.9-4.9C579.5,238.4,583.6,239,585.5,241z M665.6,246.9c12.6,3.6,15.9,3.8,18,0.5c1.9-2.8,6-3.2,10.4-0.9
	c4.5,2.3,3.9,5.2-1.3,7.5c-2.6,1.1-4.9,3.1-5.7,4.7c-0.8,1.5-1.5,2.9-1.6,3.1c-0.1,0.1-3-1.5-6.5-3.6s-10.4-6-15.4-8.7
	c-4.9-2.6-9.2-4.9-9.4-5.1C653.1,243.5,656.4,244.2,665.6,246.9z M844.7,255.2c-0.3,0.8-0.6,0.5-0.6-0.6c-0.1-1.1,0.2-1.7,0.5-1.3
	C844.9,253.6,845,254.5,844.7,255.2z M603.5,256.5c3.2,3.1,3.1,6.4-0.1,12.3c-11.8,21.3-23.5,41.5-25.2,43.4
	c-3.5,4.1-10.2,0.5-10.2-5.5c0-2,1.9-6.5,5.1-12.2c2.8-5,8.2-14.6,12.1-21.5C596.4,253,598.4,251.3,603.5,256.5z M576.3,257.7
	c3.7,4.2,3.2,6.5-4.4,21.5c-4,7.9-8.3,15.8-9.6,17.5c-3.9,5.4-9.9,3.7-11-3c-0.5-3,0.6-5.7,7.7-19.4c4.5-8.7,8.7-16.4,9.2-17.1
	C569.7,255.4,574.4,255.7,576.3,257.7z M759.6,260.5c1.4,2.5,2.9,4.4,3.2,4.1s-0.1-1.2-0.8-2.1s-1.1-1.8-0.8-2.1
	c0.8-0.7,3.5,3.9,5.8,9.7c2.6,6.9,1.7,7.7-1.1,1c-1.2-2.8-2.4-5-2.6-4.8c-0.2,0.2,0.6,2.6,1.7,5.2c3.9,9.1,1.5,6.5-4.2-4.5
	C755.2,256.2,754.3,251.6,759.6,260.5z M765.5,285.2c0.4,1.6,0.3,2.8-0.2,2.8c-1,0-4.4-9.7-4.2-12.1
	C761.2,274.2,764.5,281.3,765.5,285.2z M693,284c4.5,8.8,3.6,9.7-1,1c-4.4-8.2-4.5-8.4-3-7.5C689.6,277.9,691.4,280.8,693,284z
	 M432.1,281.6c5.5,1.6,9.2,4,8.4,5.4c-0.3,0.4-3.1,1.1-6.2,1.5c-5.4,0.7-6.2,1.1-13.3,8c-11,10.6-26.3,21.5-30.3,21.5
	c-4.4,0-3.7-4.3,2.8-17.2c3.1-6.1,4.6-10.1,2.7-7.2c-0.4,0.6-1.8,1.5-3.1,1.9c-2.1,0.6-1.8,0,1.9-3.9
	C403.9,282.1,419.5,277.9,432.1,281.6z M978.5,287c1.7,0.8,1.6,0.9-0.7,0.7c-1.5-0.2-3-0.6-3.4-1C973.4,285.7,976.1,285.9,978.5,287
	z M701,294.5c0.6,1.9,0.9,4.1,0.7,4.8c-0.5,1.3-3.7-5.3-3.7-7.8C698,288.9,699.7,290.7,701,294.5z M767.6,299.1l0.4,6.4l-1.4-4
	c-1.8-5-2.1-11.4-0.5-9.8C766.7,292.3,767.3,295.6,767.6,299.1z M990,293c0,0.5-0.7,0.7-1.5,0.4c-0.8-0.4-1.5-0.8-1.5-1
	s0.7-0.4,1.5-0.4S990,292.4,990,293z M617.9,294.5c4.7,2.4,5.4,8.3,1.6,12.1c-1.8,1.8-3.1,2.3-5,1.8c-9.6-2.4-15,11.2-7.5,18.8
	c4.9,4.9,8.8,3.7,15-4.7c4.6-6.2,8.1-7.2,11.6-3.4c3,3.4,2.4,8.6-1.9,14.6c-5.8,8.2-6,12.4-1.1,18.2c4.2,5,10.2,4.1,13.5-2.1
	c0.7-1.3,0.8-4.5,0.4-8.8c-0.6-6.1-0.5-7,1.4-8.9c2.3-2.3,4.3-2.6,7.3-1c5.2,2.8,6.6,17.6,2.4,26.4c-2.6,5.6-6.7,9.8-10.9,11.4
	c-6.2,2.4-15.7,0.8-20.4-3.3c-3.8-3.3-8.3-11.1-9.1-15.7c-0.7-4.2-0.9-4.4-5-5.1c-14.2-2.4-22.9-19.6-18.2-36.1
	c1.5-5.4,6.5-11.7,11.2-14C607.3,292.6,614.2,292.5,617.9,294.5z M462.1,295.5c4,2.1,6.6,8.5,3.4,8.5c-0.8,0-1.5,0.7-1.5,1.6
	s-0.6,1.4-1.3,1.1c-0.7-0.3-1.9,0.4-2.5,1.4c-1.5,2.3-7.4,2.6-9.2,0.4c-1.8-2.2-1.9-4.9-0.1-6.2c1.1-0.9,1.2-1.2,0.3-1.3
	c-2.9,0,4-6.8,7.1-7C458.7,294,460.4,294.7,462.1,295.5z M762.4,297.2c1.1,4.1,0.8,5.2-0.9,3.8c-0.8-0.7-1.5-0.9-1.6-0.4
	s-0.4-0.2-0.8-1.6c-0.5-1.4-0.6-2.8-0.4-3.3C759.6,294.2,761.8,295.1,762.4,297.2z M829.4,308.9c-0.6,0.6-7.8-4.7-11-8.1
	c-2-2.2-0.7-1.5,4.2,2.3C826.6,306.1,829.6,308.7,829.4,308.9z M1010.4,300.5c-1,0.8-2.6,1.4-3.4,1.4c-0.9,0-0.4-0.6,1-1.4
	C1011.3,298.6,1012.9,298.6,1010.4,300.5z M705.9,306.7c1.3,4.6-0.3,7-1.9,2.9c-0.5-1.5-1-3.6-1-4.7
	C703,301.7,704.8,302.8,705.9,306.7z M771.8,314.7c0.7,1.3,0.8,2.4,0.3,2.8c-1.5,0.9-5.5-8-4.6-10.2c0.7-1.5,1-1.2,1.9,1.7
	C770,310.9,771.1,313.5,771.8,314.7z M765,312.2c0,0.5-0.4,0.8-1,0.8c-0.5,0-1-1-1-2.3c0-1.8,0.2-1.9,1-0.7
	C764.5,310.8,765,311.8,765,312.2z M778,319c2.2,4.3,1.2,5.5-1.4,1.8c-1.5-2.1-2.2-5.8-1.1-5.8C775.7,315,776.9,316.8,778,319z
	 M1028,330.9c3.3,6.2,5.8,11.6,5.5,11.9c-0.6,0.7-0.4,1.2-5.4-8.8c-2.4-4.7-5.6-10.3-7.1-12.5c-4.1-6.1-4.5-7.2-1.7-4.5
	C1020.7,318.4,1024.6,324.6,1028,330.9z M785.5,324c4.1,4.2,3.6,5.4-0.9,1.9c-2.8-2.2-5.2-5.9-3.8-5.9
	C781.2,320,783.4,321.8,785.5,324z M547.5,326.6c2.2,0.7,6.4,1.4,9.3,1.4c10.3,0,14.3,3.3,18.7,15.3c1.5,4,4.5,11.1,6.7,15.9
	c3.8,8.6,4.3,12.8,1.4,12.8c-0.7,0-2.7,1.1-4.6,2.5c-1.9,1.4-2.7,2.5-1.9,2.5c0.9,0,0.7,0.5-0.7,1.3c-7.5,4.5-9.2,5.9-8.7,7.3
	c0.3,0.8-0.1,1.4-1.1,1.4c-0.9,0-1.6,0.7-1.6,1.5c0,0.9-0.6,1.2-1.6,0.8s-1.7,0.1-2.1,1.6c-0.3,1.1-0.9,2.1-1.4,2.1
	c-0.6,0-2.5,1.5-4.4,3.2c-8,7.7-9.5,8.8-10.9,8.8c-1.9,0-2,1.1-0.3,2.9c1,1.1,0.8,1.1-1,0.2c-2.7-1.4-3.6-1.4-2.8-0.1
	c1.2,1.9-0.7,1-13.8-6.8c-7.3-4.4-15.3-9.1-17.9-10.6c-5.7-3.2-6.7-4.6-3.9-5.3c1.1-0.3,1.8-0.9,1.5-1.4c-0.9-1.6,0.6-4.8,2.7-5.4
	c1.1-0.4,1.8-1.2,1.6-1.8c-0.2-0.7,0.3-1.8,1-2.6c0.8-0.7,1.2-1.9,0.9-2.6c-0.3-0.8,0.2-1.6,1-1.9c0.9-0.3,1.2-1.1,0.9-1.7
	c-0.4-0.6,0.2-1.7,1.4-2.5c1.2-0.9,1.9-2,1.6-2.5c-0.4-0.5,0.1-1.2,1-1.5c0.9-0.4,1.4-1.3,1.1-2c-0.3-0.8-0.2-1.3,0.2-1.2
	c1.4,0.4,5.3-2.4,4.9-3.5c-0.2-0.7,0.4-2.6,1.4-4.2c3.9-6.3,7.2-13.1,7.4-15c0.1-1.1,0.3-2.3,0.4-2.7c0-0.4,1-1,2.1-1.3
	c3.1-1,2.3-2.5-1.3-2.5c-4.2,0-4.9-0.7-3.6-3.2c1-1.8,1.7-1.9,6.7-1.3C541,324.9,545.3,325.8,547.5,326.6z M708.8,327.9
	c0.3,1.6-0.1,2.2-1,1.9c-0.7-0.3-1.5-1.5-1.6-2.7c-0.3-1.6,0.1-2.2,1-1.9C707.9,325.5,708.7,326.7,708.8,327.9z M876,330
	c4.2,2.1,7,5.4,7,8.2c0,2.6-1.6,2.2-6.6-1.6c-2.5-1.9-4.9-3.6-5.4-3.8c-0.9-0.3-0.2-4.8,0.7-4.8C871.9,328,873.8,328.9,876,330z
	 M791.9,337.1c3.5,1.7,6.1,3.2,5.9,3.5c-1.1,1-14.4-4.1-17.2-6.7l-3.1-2.9l4,1.6C783.7,333.5,788.4,335.5,791.9,337.1z M708.9,334.2
	c1,2.7,0.2,4.6-1,2.7c-1-1.5-1.2-4.9-0.4-4.9C707.8,332,708.4,333,708.9,334.2z M326.1,337.1c-0.2,0.8-0.3,2.4-0.3,3.6
	c0,1.3-0.7,2.8-1.4,3.4c-1.1,0.9-1.4,0.8-1.4-0.6c0-2.7-2.9-5.5-4.8-4.8c-1.4,0.5-1.4,0.3,0.2-1.5
	C320.6,334.7,326.8,334.6,326.1,337.1z M709.5,342c0.8,1.6,1.5,3.3,1.5,3.7c-0.1,1.4-4-3.9-4-5.3C707,338.2,707.8,338.7,709.5,342z
	 M315.7,342c-0.3,1.1-0.1,2,0.4,2s0.9-0.6,0.9-1.4c0-1.6,2.7-2.9,4.1-2c0.5,0.3,0.9,1.7,0.9,3.2c-0.1,3.3-4.2,6.9-5.8,4.9
	c-1.5-1.8-2-8.7-0.6-8.7C316,340,316,340.9,315.7,342z M870.8,342c2.3,1,4.2,2.4,4.2,3c0,1.3-2.1,0.8-9.3-2.5
	c-4.8-2.2-4.9-2.4-2.2-2.4C865.2,340.1,868.4,340.9,870.8,342z M744,343.5c0,1.7-5.6,5.5-8,5.5c-0.8,0-2.5,0.8-3.7,1.8l-2.3,1.7
	l2,3.2c1.4,2.3,3.1,3.5,6.2,4.3c2.4,0.6,7.8,2.2,12.1,3.5c4.3,1.4,8.4,2.5,9.1,2.5c0.6,0,3.3-1.4,5.9-3c5.2-3.2,8.2-3.7,11-1.6
	c2.7,2.1,2.1,5.2-1.3,6.6c-1.6,0.7-3,1.6-3,2.1s-0.7,0.9-1.5,0.9c-0.9,0-1.8,1.2-2.1,3c-0.8,3.5-1.3,3.7-4.7,1
	c-3.3-2.7-28.2-15-30.1-15c-3.3,0-8.4-3.4-11-7.4c-2.4-3.7-2.5-4.1-0.9-4.7c1-0.4,4.7-1.8,8.3-3.2C737.6,341.8,744,341.2,744,343.5z
	 M929.8,344.7c-1,0.2-2.6,0.2-3.5,0c-1-0.3-0.2-0.5,1.7-0.5S930.7,344.4,929.8,344.7z M923.3,345.7c-0.7,0.2-1.9,0.2-2.5,0
	c-0.7-0.3-0.2-0.5,1.2-0.5S923.9,345.4,923.3,345.7z M917.7,346.6c-0.3,0.3-1.2,0.4-1.9,0.1c-0.8-0.3-0.5-0.6,0.6-0.6
	C917.5,346,918.1,346.3,917.7,346.6z M913.7,347.6c-0.3,0.3-1.2,0.4-1.9,0.1c-0.8-0.3-0.5-0.6,0.6-0.6
	C913.5,347,914.1,347.3,913.7,347.6z M801.8,350.4c-2,1.5-2.4,4.1-0.8,5.1c0.5,0.3,1.5,1.6,2.2,2.8c1.3,2.5,1.4,2.6-6.4-3.7
	c-2.7-2-4.8-4.2-4.8-4.7s2.6-0.9,5.8-0.9C802.7,349.1,803.3,349.2,801.8,350.4z M852.7,353.6c-0.3,0.3-1.2,0.4-1.9,0.1
	c-0.8-0.3-0.5-0.6,0.6-0.6C852.5,353,853.1,353.3,852.7,353.6z M859.5,356c0.3,0.5-0.1,1-0.9,1c-0.8,0-1.8-0.5-2.1-1
	c-0.3-0.6,0.1-1,0.9-1S859.2,355.4,859.5,356z M829.1,358.7c-1.2,2-1.4,1.4-0.5-1.2c0.4-0.9,0.9-1.4,1.1-1.1
	C830,356.6,829.7,357.7,829.1,358.7z M882.7,367c5.8,11.7,9.9,21,8.5,19.5c-2.3-2.5-16.2-30.7-15-30.3
	C876.9,356.4,879.8,361.3,882.7,367z M856.7,358.6c-0.3,0.3-1.2,0.4-1.9,0.1c-0.8-0.3-0.5-0.6,0.6-0.6
	C856.5,358,857.1,358.3,856.7,358.6z M862.7,364.2c-0.3,0.7-0.5,0.2-0.5-1.2c0-1.4,0.2-1.9,0.5-1.3
	C862.9,362.4,862.9,363.6,862.7,364.2z M858,363.4c0,1.1-1.9,1.5-2.5,0.6c-0.3-0.5,0.1-1,0.9-1C857.3,363,858,363.2,858,363.4z
	 M681.8,365.9c7.7,4,13.2,12.4,14.6,22.2c0.6,4.1,1,4.7,4.3,5.8c5,1.8,11.4,8,14.3,13.8c3.6,7.1,3.5,18.7-0.3,26
	c-4.8,9.3-15.3,13.6-25.2,10.3c-8.1-2.7-16.5-15.2-16.5-24.4c0-2.8-0.4-3.5-2.6-4c-16.2-4.1-23.4-27.2-13.4-42.9
	C662,364.7,673.4,361.6,681.8,365.9z M854,364.4c0,0.3-0.4,0.8-1,1.1c-0.5,0.3-1,0.1-1-0.4c0-0.6,0.5-1.1,1-1.1
	C853.6,364,854,364.2,854,364.4z M860.7,365.6c-0.3,0.3-1.2,0.4-1.9,0.1c-0.8-0.3-0.5-0.6,0.6-0.6
	C860.5,365,861.1,365.3,860.7,365.6z M842.3,369.3c-0.3,0.5,0.1,1.3,0.8,1.8c1,0.6,1.1,0.9,0.1,0.9c-1.7,0-1.3,6,0.6,8.3
	c1.9,2.1,0.7,3.6-1.2,1.6c-0.8-0.8-2.6-3.6-4-6.2c-2.4-4.6-2.5-7.4-0.3-8.9C839.6,366,843,368.1,842.3,369.3z M832,368.2
	c0,0.9,0.3,0.9,0.9-0.1c0.7-1.1,1.2-0.4,2,2.5c0.6,2.2,2.4,6.1,4.1,8.7c2.9,4.7,2.6,5.2-1.3,1.9c-1.6-1.5-1.7-1.4-1.2,0.4
	c0.5,1.4-0.1,1.1-2.1-1.1c-1.5-1.7-3.1-3-3.6-3c-0.6,0-1.5-0.8-2.2-1.7c-0.7-1-1.6-1.5-1.9-1.1c-0.8,0.7-3.7-1.6-3.7-2.9
	c0-0.6,0.9-0.8,2-0.5c1.6,0.4,2,0,2-1.9s0.5-2.4,2.5-2.4C830.9,367,832,367.6,832,368.2z M861.4,368.5c-0.4,0.8-0.1,1.5,0.5,1.5
	s1.1,0.4,1.1,0.9c0,1.6-4-0.1-4.1-1.8c-0.1-1.4-0.2-1.3-0.6,0.1c-0.2,1-0.9,1.8-1.4,1.8c-0.6,0-0.5-0.8,0.1-2
	C858.3,366.6,862.3,366.2,861.4,368.5z M854.9,377.5c0.2,1.1,0.8,2.3,1.4,2.7c0.8,0.4,0.5,0.9-0.6,1.4c-2.1,0.8-5.7-2.5-5.7-5.1
	C850,374.1,854.4,375,854.9,377.5z M399.8,382.2c1.5,1.5,1.5,5.1,0,6.6c-0.9,0.9-0.8,1.6,0.4,2.9c1.1,1.2,1.8,4.8,2.3,10.8
	c0.4,4.9,0.9,9.8,1.1,10.7c0.3,0.9-0.5,2.7-1.7,3.9c-2.1,2.1-2.2,2.1-4,0.3c-2.5-2.5-4-23.4-1.8-26c1.1-1.4,1.1-1.7-0.4-2.5
	c-1.7-1-2.4-5.9-1-7.2C395.7,380.6,398.5,380.9,399.8,382.2z M409.7,382.2c0.9,1.5,3.1,31.3,2.5,34c-0.5,2.1-4.4,2.4-6,0.5
	c-1.2-1.4-3.5-31.7-2.6-34.1C404.3,380.7,408.5,380.4,409.7,382.2z M897.4,389.5c0.3,0.8,0.1,1.5-0.4,1.5c-0.6,0-1-0.7-1-1.5
	s0.2-1.5,0.4-1.5S897,388.7,897.4,389.5z M959,393c2.7,5.3,2.6,5.7-1.6,6.2c-3.1,0.4-3.7,0-5-2.3c-2.3-4.6-1.9-6.2,1.6-5.6
	c2.3,0.5,2.8,0.3,2.3-0.8C955.2,387.4,957,389.2,959,393z M776.9,399.1c1.8,3.2,2.9,5.9,2.4,5.9c-0.4,0-1.3-1-1.9-2.3
	c-0.6-1.2-2.5-4.7-4.3-7.7c-2.3-3.8-2.7-4.9-1.3-3.7C772.9,392.3,775.2,395.8,776.9,399.1z M1047.9,394.5c0,0.5-0.6,0.1-1.4-0.9
	c-0.8-1.1-1.5-2.4-1.5-3c0-0.5,0.7-0.1,1.5,1C1047.3,392.6,1047.9,393.9,1047.9,394.5z M423.1,392c2.6,1.4,2.5,6.2-0.1,8.5
	c-4.1,3.7-0.6,11.6,3.8,8.9c1.1-0.7,1.9-2.8,2.2-6.4c0.9-10,6.9-9.1,7.6,1.1c0.2,3.6,0.9,5.8,2.1,6.6c2.4,1.8,3,1.6,4.9-1.2
	c1.6-2.4,1.5-2.7-1.1-6.5c-3.3-4.8-2.9-9,0.8-9c4.6,0,8.7,6.8,8.7,14.1c0,10.1-9.4,16.3-16.4,10.8c-2.3-1.8-3.1-2-5.2-1
	c-4.8,2.1-8.4,1.4-12.4-2.7c-6.2-6.1-6.6-15.2-1.1-21.1C420.1,390.6,420.3,390.6,423.1,392z M387.4,394.1c3.8,3,5.6,7.1,5.6,12.6
	c0,6.5-2.8,10.9-7.6,12.2c-2.8,0.8-4.4,0.7-6.3-0.2c-2.3-1.1-3-1-6,1c-3.9,2.7-6.1,2.9-10.1,0.8c-7.4-3.8-9.8-16.4-4.2-22.5
	c2.6-2.9,2.8-3,5-1.5c2.6,1.9,2.8,4.3,0.7,7.1c-2.9,3.8-1.3,9.4,2.7,9.4c2.6,0,3.8-3.2,3.2-8.7c-0.5-3.8-0.3-5.2,1.1-6.3
	c2.5-2.1,4.8-0.1,6,5.2c1.2,5.5,3.1,7.9,5.3,7.1c4.1-1.5,4.2-5.3,0.2-9.5c-3.2-3.3-3.7-5.7-1.8-7.6
	C382.9,391.5,384.4,391.7,387.4,394.1z M895.3,393.5c0.4,0.8,0.2,1.7-0.2,2c-0.5,0.2-1.1-0.4-1.4-1.5
	C893.1,391.7,894.5,391.3,895.3,393.5z M471.6,400.2c2.1,1.7,4.2,2.3,8.2,2.4c4.5,0,5.7,0.5,8.3,3c8.8,8.8,5.9,23.6-4.8,25.1
	c-3.4,0.4-4.5,0.1-7.4-2.4s-4.1-2.9-7.5-2.5c-6.1,0.6-9.7-1.7-12.3-7.9c-1.8-4.1-2.1-6.2-1.6-9.7C455.9,399,464.8,394.9,471.6,400.2
	z M845.5,403.2c0.7,0.7,0.2,0.8-1.5,0.3c-3.5-1-7.8-3.3-8.5-4.5S844.1,401.7,845.5,403.2z M896.7,406.8c1.5,1.1,3.7,2.9,4.7,4.1
	c1.6,1.8,1.7,2.1,0.3,2.1c-0.8,0-2.8-1-4.4-2.3c-1.5-1.3-4.5-3.4-6.5-4.6c-2.1-1.2-3.8-2.4-3.8-2.6C887,402.6,894.2,405,896.7,406.8
	z M825.6,408.7c3.6,2.6,6.1,4.9,5.5,5.1c-1.6,0.5-7.3-1.6-9.7-3.6c-2-1.7-4.2-6.2-3-6.2C818.7,404,821.9,406.1,825.6,408.7z
	 M784.5,408c0.8,1.6,1.5,3.9,1.4,5.2c0,1.9-0.4,1.5-2-1.7C781,405.4,781.5,402.2,784.5,408z M1103,406.6c0,0.8-0.4,1.2-1,0.9
	c-0.5-0.3-1-1-1-1.6c0-0.5,0.5-0.9,1-0.9C1102.6,405,1103,405.7,1103,406.6z M521.4,408.6c0.9,0.8,1.6,2.3,1.6,3.3
	c0,3.1-4.6,20.5-6.3,23.7c-3.5,6.8-12.6,6.9-18,0.2c-7.4-9.2-2.8-23.3,7.5-23.3c3,0,4.5,0.6,5.9,2.3l1.8,2.3l0.7-3.6
	c0.6-3.5,2.7-6.5,4.4-6.5C519.5,407,520.6,407.7,521.4,408.6z M880.1,413.2c2.1,0.6,4.7,2,5.6,3.1c1.7,2,1.7,2-0.1,1.3
	c-1.1-0.4-4.3-1.4-7-2.2c-10.6-3.3-10.5-3.2-6.2-3.3C874.5,412,878,412.5,880.1,413.2z M815,416c0,0.5-0.4,1-0.8,1s-0.6,1.6-0.4,3.5
	c0.5,4-0.2,4.5-1.9,1.4c-0.8-1.6-0.8-2.7,0.2-4.5C813.4,415,815,414.2,815,416z M1018.5,424.5c9.4,23.7,22.3,65.7,29,94.5
	c4.4,18.5,2.5,14.2-3-7c-7.4-28.9-18.2-63-26.6-84.3c-2.2-5.3-3.9-10.3-3.9-10.9C1014,414.6,1015.7,417.4,1018.5,424.5z
	 M790.4,420.6c0.3,0.9,0.6,3,0.6,4.7c-0.1,3-0.1,3.1-1.5,1.3c-1.6-2.2-2-7.6-0.6-7.6C789.4,419,790.1,419.7,790.4,420.6z
	 M883.1,422.9c1.3,1.1,2.1,2.2,1.8,2.6c-0.4,0.3-2-0.5-3.5-1.9C878,420.7,879.6,420.1,883.1,422.9z M896,431.1
	c0.7,1.1,0.9,2.4,0.5,2.7c-0.7,0.7-3.5-2.5-3.5-4C893,428.2,894.9,429,896,431.1z M891.5,436.3c7.4,3.9,13.2,17,11.9,26.9
	c-1.7,13.7-7.3,19.2-19.5,19.1c-8-0.1-11.2-1.6-17.1-8.2c-5.3-5.9-7.3-11.8-6.5-19.5c0.9-9.1,6.9-17.6,13.9-19.8
	C877.2,433.9,888.9,434.9,891.5,436.3z M907.6,449.5c5.6,11.5,6,12.5,4.5,12.5c-0.5,0-2.8-3.6-5-7.9c-2.2-4.4-5-9.5-6.1-11.3
	s-2-4.1-2-5.2C899,433.9,902.1,438.2,907.6,449.5z M735.7,445.5c5.3,3.2,10.3,9.9,10.3,14c0,3.6-3.2,7.5-6.1,7.5
	c-1.1,0-3.9-2-6.3-4.5c-5.6-5.7-10-6.2-14-1.4c-4.1,4.9-2.8,14.1,2.3,16.9c4.4,2.3,8.6,1.2,15.7-4.3c22-16.9,25.2-18.3,29.3-13.1
	c2.2,2.8,2.6,5,1.4,7.9c-0.8,2.2-27.5,22.2-32.8,24.6c-11.4,5.2-25.7-2.1-30.1-15.4c-2.5-7.6-1.5-18.8,2.1-24.8
	C713.7,442.8,725.6,439.7,735.7,445.5z M434.7,453.4c13.4,6.9,16.8,31.4,5.7,41.8c-5.1,4.7-13.8,6.4-17.9,3.4
	c-1.8-1.3-1.7-1.4,0.8-1.1c1.5,0.2,2.7,0.1,2.7-0.1c0-0.3-1.5-2.1-3.4-4c-7.4-7.6-10.5-21.2-7.3-31.6c1.4-4.6,1.4-4.7-0.4-3.7
	c-3.2,1.6-2.3-1.7,1-4C421.6,450,427.8,449.8,434.7,453.4z M231.2,454.9c-0.4,3.5-1,3.8-2.8,1.3c-0.9-1.3-2.1-1.9-3.2-1.5
	c-1.3,0.4-1.3,0.2,0.3-1.1C228.5,451.2,231.6,451.9,231.2,454.9z M229,460.5c0,0.5-0.5,0.3-1-0.5s-1-2-1-2.5c0-0.6,0.5-0.3,1,0.5
	S229,459.9,229,460.5z M818.6,459.5c0.4,1.4,0.3,2.9,0,3.3c-0.9,0.8-2.6-1.8-2.6-4.1C816,456.1,817.9,456.7,818.6,459.5z
	 M226.5,459.9c0.3,0.5,0.1,1.2-0.5,1.6c-0.5,0.3-1-0.1-1-0.9C225,458.8,225.6,458.5,226.5,459.9z M228,466.1c0,1.1-0.3,1.1-2.4,0.3
	c-2.3-0.9-2-2.3,0.4-1.7C227.1,465,228,465.6,228,466.1z M823,467.7c0,1.3-0.3,1.3-1.5,0.3c-0.8-0.7-1.5-1.9-1.5-2.7
	c0-1.3,0.3-1.3,1.5-0.3C822.3,465.7,823,466.9,823,467.7z M794,468c0,1.6-0.2,3-0.5,3c-0.9,0-2.6-4.1-2-5
	C792.7,464,794,465.1,794,468z M837.9,477.7c13,11.4,13.2,12.2,0.8,2.9c-6-4.5-10.9-9.6-9.1-9.6C830,471,833.7,474,837.9,477.7z
	 M613,490.2c5.9,8.7,21.8,37.8,20.6,37.8c-0.3,0-1.7-2.1-3.2-4.8c-6.9-11.9-18.3-30.5-23.8-38.7c-8-11.7-8.5-12.9-3.7-7.6
	C605.2,479.3,609.7,485.3,613,490.2z M794.6,476c-0.4,2.3,0.1,4.1,2.1,7.1c1.4,2.2,2.3,4.2,2,4.5s-1.7-1.3-3.2-3.6
	c-3.4-5.4-4-7-2.5-7c0.7,0,0.9-0.8,0.5-2s-0.2-2,0.6-2C794.9,473,795,474,794.6,476z M407.3,480.7c-0.7,0.2-1.9,0.2-2.5,0
	c-0.7-0.3-0.2-0.5,1.2-0.5S407.9,480.4,407.3,480.7z M408.1,486.3c-1.7,1.7-3.4-1.2-1.9-3.1c1-1.1,1.3-1,2.1,0.3
	C408.9,484.6,408.8,485.6,408.1,486.3z M693.2,512c0.4,0,0.8-0.4,0.8-0.9c0-0.4,3.8,1.2,8.4,3.6c4.7,2.4,11.5,5.5,15.3,6.8
	c5.7,2.1,15.9,6.4,17.2,7.1c0.1,0.2,0,0.8-0.4,1.3c-0.4,0.8-1.1,0.6-2.1-0.4c-0.9-0.8-1.9-1.5-2.4-1.5c-1.2,0-3.4,4-2.3,4.1
	c1.1,0.1-2.9,1.7-4.4,1.8c-0.7,0.1-1.3-0.8-1.3-1.9c0-1.4-0.7-2-2.1-2c-1.6,0-2,0.5-1.7,2.7c0.3,2.5,0,2.8-2.5,2.5
	c-2.1-0.2-2.9,0.3-3.6,2c-0.9,2.3-0.9,2.3-1.6-0.5c-1-3.9-3-2.8-2.9,1.7c0.1,2-0.3,3.6-0.8,3.6s-0.6-0.5-0.3-1c0.3-0.6,0.2-1-0.4-1
	c-0.6,0-1.5,0.9-2,1.9c-0.8,1.4-1.9,1.8-4.6,1.6c-2.7-0.3-3.8,0.1-4.5,1.6c-0.6,1-1.9,1.9-3,1.9c-1,0-2.2,0.5-2.5,1
	c-0.4,0.6-1.1,0.8-1.6,0.5c-0.5-0.4-0.9,0-0.9,0.7c0,0.9-0.3,0.9-1-0.2c-0.8-1.2-1-1.2-1-0.1c0,0.8-0.7,1.1-2,0.8c-1.4-0.3-2,0-2,1
	s-0.6,1.4-2,1c-1.1-0.3-2,0-2,0.5c0,0.6-0.6,0.5-1.5-0.2c-1.4-1.1-1.9-0.7-1.6,1.3c0.1,0.4-1.5,1.5-3.6,2.3c-2.3,1-3.2,1.8-2.4,2.3
	c0.6,0.4-0.7,0.8-3.1,0.9c-2.4,0.1-4.4,0.7-4.6,1.2c-0.2,0.6-1,1-1.8,1s-1.4,0.4-1.4,1c0,0.5-0.7,0.7-1.5,0.4
	c-0.9-0.4-1.8,0.2-2.3,1.6c-0.7,1.8-1.2,1.2-3.6-4.7c-5.5-13-12.6-30.4-12.6-30.8c0-0.2,1.1-0.2,2.5,0c1.4,0.1,2.5-0.2,2.5-0.8
	c0-0.5,0.9-0.7,2-0.4c1.3,0.3,2,0,2-1c0-0.8,0.4-1.2,0.9-0.9s2.3-0.2,4.1-1c2.7-1.4,3.4-1.4,4.1-0.3c0.7,1.2,0.9,1.1,0.9-0.1
	c0-0.9,1-1.6,2.2-1.7c1.3-0.1,2.4-0.6,2.6-1.1c0.2-0.6,1.2-0.8,2.2-0.5c1.3,0.4,2,0,2-0.9s1.7-1.8,4.3-2.4c3.1-0.6,4.2-1.4,4.1-2.6
	c-0.1-1,0.3-1.5,0.8-1.2s0.7,1.2,0.4,2s-0.1,1.4,0.4,1.4c0.6,0,1-1,1-2.3c0.1-2.1,0.1-2.2,1.5-0.3c0.9,1.2,1.5,1.5,1.5,0.7
	c0-1,0.9-1.2,3.1-0.7c2.7,0.5,3,0.4,2.4-1.5c-0.6-1.7-0.4-2,1.2-1.5c1.2,0.4,2.4-0.1,3.3-1.4l1.5-2.1l0.9,2.1
	C691.9,511.1,692.7,512,693.2,512z M894,522c0,0.5-0.5,1-1.1,1c-0.5,0-0.7-0.5-0.4-1c0.3-0.6,0.8-1,1.1-1
	C893.8,521,894,521.4,894,522z M896,525c0,0.5-0.4,1-1,1c-0.5,0-1-0.5-1-1c0-0.6,0.5-1,1-1C895.6,524,896,524.4,896,525z
	 M444.2,534.9c16,4.7,32.6,14.9,46.4,28.6c17.7,17.6,30.1,40.5,37.2,68.3c2.5,10,2.7,12.2,2.7,31.7c0,16.2-0.4,22.8-1.7,29
	c-4,18.1-11,34.7-19.8,46.7c-10.1,13.8-27.5,25.7-43.9,29.9c-10.2,2.7-27.8,2.9-38.1,0.4c-19.8-4.7-46.2-24.9-59.8-45.8
	c-11.7-17.9-21.1-41.4-24.9-62.1c-2.5-13.2-2.4-42.2,0.1-53.6c2.5-11.4,6.7-23.7,10.6-30.7c1.8-3.2,4.2-7.6,5.2-9.8
	c2.8-5.6,18.1-20.3,25.8-24.8c6-3.5,21.6-9,28.5-10.1C419,531.6,437.6,532.9,444.2,534.9z M708.7,537.2c-0.3,0.8-0.6,0.5-0.6-0.6
	c-0.1-1.1,0.2-1.7,0.5-1.3C708.9,535.6,709,536.5,708.7,537.2z M739.1,544.2c-7.3,15.2-7.7,31.4-1.1,45.8c2.7,5.8,2.8,6.2,0.7,3.6
	c-2-2.4-2.6-2.7-4.4-1.8c-1.4,0.8-2.3,0.8-3.1,0c-0.6-0.6-1.6-0.7-2.7-0.1c-1.6,0.9-1.6,1.1,0,2.6c2.1,2.1,1.6,2.1-2.5,0.1
	c-1.8-0.9-3.5-1.3-3.9-0.8c-0.3,0.5-1.3,1-2.1,1.2s-1.6,0.8-1.8,1.3s-0.8,0.9-1.3,0.9c-0.6,0-0.7-0.5-0.4-1c0.9-1.4-0.8-1.3-2.3,0.2
	c-0.9,0.9-1.2,0.9-1.2,0.1c0-1.6-4.8-0.9-7.1,1c-1.2,1.1-1.9,1.3-1.9,0.5s-0.6-0.6-1.7,0.4c-1.5,1.6-1.7,1.6-2.9,0s-1.3-1.6-1.4,0.3
	c0,1.7-0.2,1.7-1,0.5c-0.9-1.3-1.1-1.3-2,0c-0.5,0.8-1,1-1,0.5c0-0.6-0.5-0.3-1,0.5c-0.7,1.1-1,1.1-1,0.2c0-0.8-0.5-1-1.2-0.6
	c-0.6,0.4-3.3,0.8-5.8,0.8c-3.4,0.1-4.6,0.4-4.3,1.3c0.3,0.7,0,1.3-0.6,1.3s-1.1-0.8-1.1-1.8c0-1.4-0.4-1.2-2,0.8
	c-1.1,1.4-2,1.9-2,1.2c0-1.7-5-1.5-7.1,0.4c-2,1.8-4.1,1.1-3.2-1.1c0.3-0.9,0-2.1-0.5-2.8c-1.5-1.8-6.2-18.4-6.2-21.9
	c0-2.5,0.3-2.8,2-2.3c1.3,0.4,2,0.2,1.8-0.5c-0.2-0.8,1.2-1.3,3.8-1.4c2.2-0.1,5.2-0.9,6.7-1.9s2.7-1.5,2.7-1.2s0.9-0.3,2.1-1.4
	c1.2-1.1,3.2-1.8,5-1.7c1.6,0.1,2.9-0.3,2.9-0.8c0-0.6,0.8-0.2,1.6,0.9c1.6,1.9,1.6,1.9,1.2-0.8c-0.3-1.5-0.1-2.7,0.3-2.7
	c0.5,0,0.9,0.6,1,1.2c0,1,0.2,1,0.6,0c0.2-0.6,1.3-1.2,2.3-1.2s2.2-0.5,2.5-1c0.4-0.6,1.1-0.8,1.6-0.5c0.5,0.4,1.6-0.1,2.5-0.9
	c1.8-1.8,3.4-2.1,3.4-0.6c0,0.7,0.6,0.7,1.9,0.1c1-0.6,2.2-0.7,2.7-0.3s0.6,0.3,0.2-0.2c-0.9-1.1,2.1-3.5,4.5-3.6
	c0.9,0,1.7,0.6,1.8,1.2c0,1,0.2,1,0.6,0c0.2-0.6,1.2-1.2,2.1-1.2c1,0,1.3-0.3,0.6-0.8c-0.6-0.4-0.3-1.4,1-2.6
	c1.3-1.3,1.8-1.5,1.4-0.4c-0.5,1.3,0,1.3,4,0.4c2.6-0.6,5.7-1.7,7-2.4c1.2-0.7,2.7-1,3.2-0.7s2.4-2.5,4.1-6.2c3.2-7,4.9-9.7,5.6-8.9
	C743,535.6,741.3,539.6,739.1,544.2z M1053,541.3c0,0.5-0.4,0.5-1,0.2c-0.5-0.3-1-1.4-1-2.3c0-1.5,0.2-1.5,1-0.2
	C1052.5,539.8,1053,540.9,1053,541.3z M1054.7,552.2c-0.3,0.8-0.6,0.5-0.6-0.6c-0.1-1.1,0.2-1.7,0.5-1.3
	C1054.9,550.6,1055,551.5,1054.7,552.2z M779,569.8c11.4,10.4,18.6,17.6,18.8,19c0.8,5.2-6.5,24.9-9.7,26
	c-1.8,0.6-12.8-11.8-17.5-19.8c-5.6-9.4-8-15.6-10-25.3c-1.7-8-2.1-16.7-0.8-16.7C760.2,553,768.8,560.6,779,569.8z M882.8,558
	c2.5,2.4,2.9,6.2,0.7,8c-0.8,0.7-1.5,1.8-1.5,2.6c0,1.5-1.8,2.9-2.7,2.1c-0.3-0.3,0.4-1.8,1.6-3.3c2.8-3.6,2.7-4.7-1-8.3
	c-2.6-2.6-2.8-3.1-1.2-3.1C879.8,556,881.6,556.9,882.8,558z M872.5,560c-0.3,0.5-1.2,1-1.8,1c-0.7,0-0.6-0.4,0.3-1
	C872.9,558.8,873.3,558.8,872.5,560z M303.6,566.2c14.4,10.3,15.3,35.5,1.4,42.6c-4.7,2.4-10.2,2.5-12.4,0.2c-0.8-0.8-0.3-1,1.9-0.4
	l3,0.7l-4.2-4.4c-8-8.3-11.3-21.5-7.9-31.5c1.9-5.8,1.9-5.5,0.1-4.8c-3,1.2-1.5-2.4,1.8-4C291.8,562.3,299.1,563,303.6,566.2z
	 M1056.7,565.2c-0.3,0.8-0.6,0.5-0.6-0.6c-0.1-1.1,0.2-1.7,0.5-1.3C1056.9,563.6,1057,564.5,1056.7,565.2z M866,567.4
	c0,0.3-0.4,0.8-1,1.1c-0.5,0.3-1,0.1-1-0.4c0-0.6,0.5-1.1,1-1.1C865.6,567,866,567.2,866,567.4z M1057.7,570.2
	c-0.3,0.8-0.6,0.5-0.6-0.6c-0.1-1.1,0.2-1.7,0.5-1.3C1057.9,568.6,1058,569.5,1057.7,570.2z M886.4,573.1c1.4,0.7,2.3,1.6,1.9,2.2
	c-0.4,0.6-0.1,0.7,0.6,0.2c0.9-0.5,3.5,1.3,7.5,5.2c3.3,3.3,7.2,6.7,8.6,7.6c10.1,6.8,14.7,9.7,22.9,14.5c5.2,3,11.8,6.7,14.5,8.2
	c2.8,1.5,9.2,5,14.2,7.8c4.9,2.7,12.8,6.9,17.5,9.2c11.7,5.9,15.7,11,10.3,13.1c-3.1,1.1-9.9-0.8-14.9-4.2c-1.6-1.1-6.1-3.6-10-5.5
	c-3.8-1.9-10.1-5.3-14-7.5c-3.8-2.1-8.6-4.7-10.5-5.7c-1.9-0.9-3.7-1.9-4-2.2s-2.3-1.4-4.5-2.5s-4.2-2.2-4.5-2.5s-1.6-1.1-3-1.8
	c-6.2-3-13.1-7.8-19.2-13.1c-2.1-1.8-3.8-3.1-3.8-2.7c0,0.7-2.5-1.4-9.1-7.6c-4.7-4.5-5-5-4.7-9.3
	C882.5,571.6,882.7,571.5,886.4,573.1z M874,574.5c-1.4,1.7-7,2.1-7,0.5c0-0.5,0.6-0.7,1.4-0.4s2.3,0.1,3.3-0.5
	C874.3,572.6,875.4,572.8,874,574.5z M1059.7,583.7c-0.3,1-0.5,0.2-0.5-1.7s0.2-2.7,0.5-1.8C1059.9,581.2,1059.9,582.8,1059.7,583.7
	z M580,587.9c13.1,7.8,17,30.3,7.1,40.3c-3.4,3.4-4.1,3.6-8.2,3.1c-10.4-1.2-17.4-7.4-20.5-18.2c-1.6-5.2-1.5-9.7,0.2-18
	c0.7-3.2,0.6-3.3-1.5-2.2c-3.9,2.1-1.7-2.7,2.6-5.4C565.7,583.5,572.9,583.7,580,587.9z M942.6,594.7c-1,5.5-2.6,10.3-3.6,10.3
	c-1.3,0-2.8-2.4-3.1-5c-0.4-2.8,3.7-9,5.9-9C942.9,591,943.1,591.9,942.6,594.7z M965.9,602.3c2.6,4.6,2.7,5.2,1.6,9.1
	c-1,3.4-1.7,4.2-3.9,4.4c-1.5,0.2-4.3-0.4-6.1-1.2c-2.9-1.4-3.5-2.3-4-6c-0.8-5.3-0.2-7.6,3.2-11.6c2.4-2.9,2.6-3,4.4-1.4
	C962.2,596.6,964.3,599.6,965.9,602.3z M277.7,595.6c-0.3,0.3-1.2,0.4-1.9,0.1c-0.8-0.3-0.5-0.6,0.6-0.6
	C277.5,595,278.1,595.3,277.7,595.6z M686,602c0,0.5-0.2,1-0.4,1c-0.3,0-0.8-0.5-1.1-1c-0.3-0.6-0.1-1,0.4-1
	C685.5,601,686,601.4,686,602z M974,608.5c1.7,5.1,0.1,12.5-2.6,12.5c-0.9,0-1.4-1.2-1.4-3.3c0-4,0.8-5.1,2.7-3.6
	c1,0.9,1.3,0.8,1.3-0.5c0-0.9-0.7-1.6-1.5-1.6s-1.5-0.5-1.5-1.1c0-0.5,0.4-0.7,1-0.4c0.7,0.4,0.7-0.3,0-2c-1.3-3.3-1.3-4.8-0.1-4
	C972.4,604.8,973.4,606.6,974,608.5z M666.5,607c0.3,0.5,0.1,1-0.4,1c-0.6,0-1.1-0.5-1.1-1c0-0.6,0.2-1,0.4-1
	C665.7,606,666.2,606.4,666.5,607z M550.8,615.2c-0.6,1.8-2.8,2.1-2.8,0.4c0-0.9,0.7-1.6,1.6-1.6C550.5,614,551,614.5,550.8,615.2z
	 M553,620c0,1.1-0.7,2-1.5,2s-1.5-0.9-1.5-2s0.7-2,1.5-2S553,618.9,553,620z M776.7,627.2c-0.2,1.3-0.4,0.5-0.4-1.7
	c-0.1-2.2,0.1-3.2,0.4-2.3C776.9,624.2,776.9,626,776.7,627.2z M952.4,631.9c-0.5,0.6-8.4-3.1-8.4-3.9c0-0.4,2,0.2,4.4,1.4
	C950.8,630.6,952.6,631.7,952.4,631.9z M777.7,636.2c-0.2,1.3-0.4,0.3-0.4-2.2s0.2-3.5,0.4-2.3C777.9,633,777.9,635,777.7,636.2z
	 M563.5,633.8c-0.8,0.8-2.5-1-1.9-2c0.4-0.6,0.9-0.5,1.5,0.3C563.5,632.8,563.7,633.6,563.5,633.8z M577.6,632c2.1,0,3.3,0.4,2.9,1
	c-0.7,1.1-9.4,1.4-12.2,0.3c-1.6-0.6-1.5-0.8,0.7-1.4c1.4-0.4,3.1-0.5,3.8-0.3C573.6,631.8,575.7,632,577.6,632z M201.1,642.2
	c0.9,7.5,1.4,9.6,2,7.8c0.7-2.5,0.7-2.5,0.8-0.2c0.1,1.3,0.6,2,1.1,1.7c0.6-0.4,1,0.6,1.1,2.2c0.1,2.5,0.2,2.4,1.1-1
	c0.6-2,1.3-3.7,1.8-3.7c0.4,0,1,3.7,1.4,8.2c1.6,20,7.5,47.4,15.3,71.3c3.2,9.6,4.6,15.2,3.9,15.7c-0.5,0.4-1.4,0.4-1.8,0.2
	c-0.5-0.3-1.1,0.1-1.4,1c-0.3,0.8-1.2,1.7-1.9,2c-0.9,0.3-1.8-1.6-3-6.7c-0.9-4-5.7-23.4-10.5-43.2c-7.8-31.5-12-53.9-12-63.1
	C199,629.3,199.8,632.4,201.1,642.2z M208.7,646.7c-0.3,1-0.5,0.2-0.5-1.7s0.2-2.7,0.5-1.8C208.9,644.2,208.9,645.8,208.7,646.7z
	 M778.7,647.2c-0.3,0.7-0.5,0.2-0.5-1.2s0.2-1.9,0.5-1.3C778.9,645.4,778.9,646.6,778.7,647.2z M927,649c0,0.5-0.4,1-1,1
	c-0.5,0-1-0.5-1-1c0-0.6,0.5-1,1-1C926.6,648,927,648.4,927,649z M765,661.8c4.2,2.1,5.1,4.8,1.8,6.1c-1.3,0.6-1.7,1-1,1
	c0.6,0.1,1.2,1.1,1.2,2.4c0,3.4-2.1,5.6-6,6.3c-2.8,0.4-3.2,0.3-2-0.6c1.2-0.9,0.8-1-1.7-0.5c-2.4,0.5-3.7,0.1-5.2-1.4
	c-2.2-2.2-3-7.8-1-6.5c0.8,0.4,0.9-0.1,0.4-1.6c-0.9-2.9,3.3-6,9.5-6.8C761.3,660.1,763.1,660.9,765,661.8z M340.4,679
	c0.5,2.5,0.3,3.1-0.5,2.3c-0.6-0.6-1.3-3-1.5-5.4C337.9,671,339.2,673,340.4,679z M347.5,700.8c-0.5,0.6-4-6.9-4.9-10.8
	c-0.3-1.4,0.8,0.4,2.4,3.9C346.7,697.4,347.8,700.5,347.5,700.8z M356,717.3c2.1,3.7,3.6,6.7,3.2,6.7c-0.8,0-1.7-1.4-6.2-9.5
	C348.6,706.6,351,708.9,356,717.3z M795.1,716.1c11.9,23.6,7.9,52.1-9.7,69.5c-6.9,6.9-14.8,10.9-16.5,8.3c-1.2-1.9-3.7-10.6-4.9-17
	c-1.4-7.4-1.2-21.6,0.4-29.6c1.9-9.8,1.7-11.4-1.4-11c-1.4,0.1-3.5,0.8-4.6,1.5c-1.2,0.6-3.7,1.3-5.5,1.4c-1.9,0.1-3.7,0.7-4.1,1.2
	c-1.2,1.7-2.2-0.2-1.2-2.4c1.8-3.8,11-12.4,19-17.6c6.9-4.6,20.3-10.3,24.1-10.4C791.4,710,793.4,712.7,795.1,716.1z M986.1,730.1
	c-0.6,1.6-1,1.8-1,0.7c-0.1-2.2,1.2-5.5,1.6-4.2C986.9,727.2,986.6,728.8,986.1,730.1z M355.1,761c4.5,1.3,11.4,7.2,13.8,11.9
	c4.2,8.2,4.6,19,1.1,26.1c-3,5.8-6.1,8.1-12.4,8.7c-3.9,0.4-5.6,0.2-5.6-0.6c0-0.6,0.5-1.1,1.1-1.1s-1.2-2.5-3.9-5.5
	c-3.1-3.4-5.7-7.5-6.8-10.7c-2.4-6.8-2.4-17.2,0-21.6l1.7-3.4l-2.3,0.7c-2.3,0.8-2.3,0.8-0.4-1.4c1.7-1.9,5.9-3.7,9.1-4
	C351.1,760,353.1,760.5,355.1,761z M241,766.4c0,1.2-0.5,0.7-1.9-2.4c-1.1-2.4-1.1-2.4,0.3-0.6C240.3,764.5,241,765.8,241,766.4z
	 M243.3,772.2c0.8,2.4,1.8,5.2,2.2,6.3c0.6,1.7,0.5,1.7-0.9-0.3c-1-1.2-2.1-2-2.6-1.7s-1.1,0.1-1.5-0.4c-0.3-0.6-1.2-0.8-2-0.4
	c-0.9,0.3-1.5-0.1-1.6-0.8c0-0.8-0.4-0.6-0.8,0.4c-0.6,1.7-0.8,1.6-1.9-0.8c-1-2.1-1-2.5,0-1.8c1.8,1.1,4.2,1,5.1-0.2
	c0.4-0.6,1.3-0.2,2.3,1c1.6,1.9,1.6,1.9,0.9-0.5c-0.4-1.4-1-3.1-1.2-3.8c-0.3-0.6-0.3-1.2,0-1.2S242.5,769.9,243.3,772.2z
	 M530.7,782.4c12.8,8.5,16.6,32,6.7,40.8c-4.6,4-13.9,6.1-17.4,3.8c-1.2-0.8-0.9-1,1.4-1c2.8,0,2.8,0-2.2-4.5
	c-5.8-5.2-8.9-10.9-10.1-18.7c-0.9-5-0.2-11.8,1.5-16.2c0.6-1.6,0.5-1.7-1.4-0.7c-2.9,1.5-2.8,0,0.1-2.7
	C514.7,778.1,523.7,777.8,530.7,782.4z M248.4,782.6c0.3,0.8,0.2,1.2-0.4,0.9c-0.6-0.3-1-1-1-1.6C247,780.5,247.7,780.8,248.4,782.6
	z M253.4,795.6c-0.4,1.7-0.1,2.9,1,3.7c2,1.5,1.2,8.9-1,8c-1.1-0.4-1.2,0.1-0.3,2.6c1.2,3.5,2.4,4.3,1.4,1c-0.5-1.5-0.4-1.9,0.5-1.4
	c0.7,0.4,0.9,1.7,0.6,3.1c-0.4,1.5-0.2,2.4,0.5,2.4c0.7,0,0.9,0.3,0.6,0.7c-0.4,0.3,0,1.7,0.9,3.1c0.8,1.3,1.4,2.5,1.2,2.8
	c-0.6,0.5-7.8-12.3-7.8-13.9c0-0.8-1.1-2.7-2.5-4.3c-2.5-2.9-3.3-5-1.5-3.9c0.6,0.4,0.7-0.1,0.3-1.2c-0.7-1.7-0.6-1.7,1.7-0.2
	l2.5,1.6v-4.8c0-2.6-0.2-4.9-0.5-5.1s-1.5,0.6-2.7,1.9s-1.7,2.3-1.1,2.3c0.6,0,1.7-0.8,2.4-1.8c1.2-1.6,1.3-1.5,1.4,0.5
	c0,2.2-3.1,4-5,2.8c-0.6-0.4-0.7,0.1-0.3,1.1c0.4,1.2,0.3,1.5-0.6,1c-1.3-0.9-0.5-4.7,1.3-5.8c0.6-0.4,0.8-0.8,0.4-0.8
	s0.3-1,1.5-2.3l2.2-2.2l1.8,3.3C253.4,791.8,253.8,794,253.4,795.6z M336,793.5c0,0.8-0.9,1.5-2,1.5c-2.2,0-2.7-1.5-0.7-2.3
	C335.4,791.8,336,792,336,793.5z M256.7,806.2c-0.3,0.8-0.6,0.5-0.6-0.6c-0.1-1.1,0.2-1.7,0.5-1.3
	C256.9,804.6,257,805.5,256.7,806.2z M503.5,809c0.3,0.5,0.1,1-0.4,1c-0.6,0-1.1-0.5-1.1-1c0-0.6,0.2-1,0.4-1
	C502.7,808,503.2,808.4,503.5,809z M504.8,814.8c0.4,2.3-0.4,2.7-2.7,1.3c-1.7-1.1-0.7-4.5,1.2-3.9
	C503.9,812.5,504.6,813.6,504.8,814.8z M260.8,817.4c-0.7,0.8-1.5,1.2-1.7,1.1c-0.5-0.6,1-2.5,2-2.5
	C261.6,816,261.5,816.6,260.8,817.4z M262.1,821.6c-0.5,1.6-1,2.1-1,1.2c-0.1-1.8,1-5.1,1.5-4.5
	C262.8,818.4,262.5,819.9,262.1,821.6z M263.3,825.5c-0.3,0.9-0.8,1.4-1,1.1c-0.3-0.3-0.2-0.9,0.2-1.5
	C263.4,823.5,264,823.8,263.3,825.5z M725.5,833.4c2.7,1,4.1,2.1,4.3,3.5c0.2,1.2,1,2.1,1.8,2.1c1.6,0,1.8,0.9,0.4,3
	c-0.9,1.3-1,1.3-1,0c0-0.8-0.6-0.4-1.3,1c-1.4,2.8-6.9,5.9-7.4,4.3c-0.2-0.6-1.4-0.8-2.6-0.6c-2.8,0.6-6.1-2.4-6.5-5.9
	c-0.3-2.7,2.5-6.2,6.3-7.8c1.1-0.5,2-0.9,2-0.9S723.3,832.7,725.5,833.4z M1003,834c0,0.5-0.5,1-1.1,1c-0.5,0-0.7-0.5-0.4-1
	c0.3-0.6,0.8-1,1.1-1C1002.8,833,1003,833.4,1003,834z M961.1,864c0.5,0,0.9,0.6,0.9,1.2c-0.1,0.7-1,0.2-2-1.1c-1.1-1.3-2-3.1-1.9-4
	c0-0.9,0.5-0.4,1.1,1.1C959.7,862.8,960.6,864,961.1,864z M962.7,861.2c-0.3,0.8-0.6,0.5-0.6-0.6c-0.1-1.1,0.2-1.7,0.5-1.3
	C962.9,859.6,963,860.5,962.7,861.2z M957.7,865.2c-0.3,0.8-0.6,0.5-0.6-0.6c-0.1-1.1,0.2-1.7,0.5-1.3
	C957.9,863.6,958,864.5,957.7,865.2z M956.7,869.2c-0.3,0.8-0.6,0.5-0.6-0.6c-0.1-1.1,0.2-1.7,0.5-1.3
	C956.9,867.6,957,868.5,956.7,869.2z M733.6,883.1c-1.4,16.4-9,30.4-20.6,37.9c-10.2,6.5-33,8.2-33.7,2.5c-0.2-1.1,0-1.4,0.3-0.8
	c0.3,0.7,1,1.3,1.6,1.3s0.3-0.9-0.7-2c-1.7-1.9-1.8-2.6-0.6-8.3c0.7-3.4,2.6-8.6,4.2-11.7c3.4-6.5,2.5-7.3-4.7-4.5
	c-4.5,1.7-9.4,1.4-9.4-0.5c0-3.9,30.2-16,40-16c2.5,0,8.4-1.3,13-2.9c4.7-1.6,9.1-3,9.9-3C734,875,734.2,876.5,733.6,883.1z
	 M344.3,917.4c1.7,2.5,0.7,4.6-2.2,4.6c-1.3-0.1-1.3-0.2,0.2-1.1c0.9-0.5,1.7-1.5,1.7-2c0-0.6-0.4-0.8-0.9-0.5s-1.1-0.3-1.4-1.4
	C341,914.3,342.4,914.5,344.3,917.4z M619.4,946.8c3,0.8,5.6,4,5.6,6.6c0,2.9-3.4,5.6-7,5.6c-2,0-2.2-0.2-1-1c1.3-0.8,1.3-1,0.1-1
	s-1.2-0.3-0.3-1.2c0.7-0.7,1.2-1.9,1.2-2.8c-0.1-1.3-0.3-1.2-1.4,0.2c-0.7,1-2.1,1.8-3,1.8c-1,0-1.4,0.4-1.1,1c0.3,0.5,0.1,1-0.5,1
	c-1,0-2.5-3.1-3.2-6.5c-0.4-2.1,4.9-5.6,7.2-4.8C616.8,946,618.4,946.5,619.4,946.8z M573.2,969.6c4.8,0.8,11.3,2.4,14.4,3.4
	c6.8,2.4,11.2,2.5,16.1,0.5c4.3-1.8,4.3-1.8,4.3-0.2c0,1.2-7.1,8.5-11.1,11.5c-4.7,3.5-22.5,5.6-27.9,3.4l-2.5-1.1l3-0.1
	c2.8,0,2.5-0.3-3.1-3.4c-7.7-4.1-16.1-10.2-17.4-12.6C546.8,966.9,555.1,966.5,573.2,969.6z M482.9,977.7c0.1,0.6,0.6,1.3,1.2,1.5
	c0.5,0.2,0.7,1.1,0.4,2c-0.8,2.1-4.8,3.5-5.3,1.9c-0.2-0.6-1.3-0.8-2.6-0.5c-3.3,0.8-7.8-3.1-7.4-6.5c0.3-2.2,0.8-2.6,3.5-2.6
	c1.7,0,3.5-0.3,3.8-0.7C477.4,971.9,482.9,976.1,482.9,977.7z"/>
<path class="st0" d="M520,69.2c-4.6,1.3-7,3.5-7,6.6c0,1.3-1.2,4.7-2.7,7.4c-2.2,4.1-2.5,5.2-1.5,6.6c3.9,5.4,5.2,8,5.2,10.4
	c0,3.2-0.3,3,7,3.3c3,0.2,5.6,0.8,5.8,1.4c0.6,1.8,6.1-2,8.5-5.9c1.8-2.8,2.2-5.1,2.3-11.7c0.1-4.5-0.3-8-0.7-7.7
	c-0.5,0.3-0.9-0.6-0.9-2s-0.3-2.5-0.8-2.4c-0.4,0.2-1.8-0.7-3.2-2c-1.4-1.2-3.5-2.5-4.7-2.8c-1.3-0.4-2.3-1-2.3-1.5
	C525,67.8,524.6,67.9,520,69.2z M530.6,78.5c-0.3,0.8-0.1,1.5,0.4,1.5c2.2,0,5,4.1,5,7.4c0,4-3.4,12.6-5,12.6c-0.6,0-0.8,0.4-0.5,1
	c0.3,0.5-0.3,1-1.4,1c-2.2,0-5.1-2.5-5.1-4.3c0-0.7-1.3-3.2-2.9-5.6l-2.9-4.4l3.5-4.9c2-2.7,4.1-4.7,4.8-4.4c0.6,0.2,1.8,0,2.6-0.5
	C531,76.7,531.3,76.8,530.6,78.5z"/>
<path class="st0" d="M443.5,100c-0.3,0.6,0.1,0.7,0.9,0.4c1.8-0.7,2.1-1.4,0.7-1.4C444.5,99,443.8,99.4,443.5,100z"/>
<path class="st0" d="M439.5,102c-0.3,0.6,0.1,0.7,0.9,0.4c1.8-0.7,2.1-1.4,0.7-1.4C440.5,101,439.8,101.4,439.5,102z"/>
<path class="st0" d="M668.5,382.5c-3.7,3.7-3.5,10.6,0.4,14.6c5.3,5.3,12.3,2.9,13.7-4.7C684.3,383,674.7,376.2,668.5,382.5z"/>
<path class="st0" d="M689.6,411.6c-5,5-3,14.1,3.8,16.9c7.4,3.1,13.3-6.4,9.1-14.6C699.7,408.6,693.7,407.5,689.6,411.6z"/>
<path class="st0" d="M396.2,384.9c0.4,1.3,1.8,1.6,1.9,0.4c0-0.4-0.5-0.9-1.1-1.2C396.3,383.9,395.9,384.3,396.2,384.9z"/>
<path class="st0" d="M397.6,403.6c0.6,9.2,1.5,12.6,2.9,11.2c1.2-1.2-1-20.1-2.3-20.6C397.1,393.9,397,395.7,397.6,403.6z"/>
<path class="st0" d="M406.4,397.7c0.8,14.7,1.2,17.3,2.7,17.3c0.7,0,0.8-4.4,0.4-12.3c-0.7-14.9-1.3-18.7-2.7-18.7
	C406.1,384,405.9,388.1,406.4,397.7z"/>
<path class="st0" d="M418.6,396.5c-5.4,5.8-2.2,17.7,5.1,19.1c2.2,0.4,4.2,0.2,5.2-0.5c3.1-2.2,4-2.2,6-0.2c1.1,1.1,3.2,2.3,4.6,2.7
	c8.5,2.1,13.5-10.3,7.3-18.1c-2-2.6-3.8-3.3-3.8-1.4c0,0.6,0.9,2.2,2,3.6c2.6,3.3,2.6,8.3,0,11.1c-2.3,2.5-2.9,2.6-6.3,1.3
	c-2.9-1.1-3.8-3-4.6-9.4c-0.8-6.3-2.5-6.1-3.1,0.4c-0.8,6.8-4.2,9.5-9,6.9c-1.7-0.9-4-5.8-4-8.6c0-0.7,1.2-2.7,2.6-4.4
	c1.9-2.2,2.4-3.4,1.6-4.2C421.5,394.1,420.4,394.5,418.6,396.5z"/>
<path class="st0" d="M383,396.1c0,0.7,1.1,2.2,2.5,3.5c1.9,1.7,2.5,3.3,2.5,6.4c0,4.1-2.6,8-5.4,8c-2.7,0-5.8-3.7-7-8.3
	c-1.6-6.2-3.2-5.6-2.8,1c0.3,4.1,0,5.5-1.7,7.2c-2.6,2.6-4.1,2.6-7.3,0.1c-3.2-2.5-4.1-6.6-2.2-10.4c1.8-3.7,1.8-5.7,0-5
	c-3.4,1.3-4.7,9.5-2.1,14.4c3.2,6.2,8.9,7.7,13.2,3.4c2.5-2.6,2.6-2.6,6.3-0.9c4.7,2.1,7.5,1.3,10.1-2.8c2.1-3.5,2.4-7.2,0.9-11.1
	C388.4,397.2,383,393,383,396.1z"/>
<path class="st0" d="M459.5,403.6c-2,2.1-2.5,3.8-2.5,7.6c0,4.4,0.4,5.4,3.5,8.5c2.9,2.9,4.1,3.4,6.8,3.1c1.7-0.3,3.9-0.8,4.9-1.2
	c1.1-0.5,1.8-0.1,2.3,1.4c0.9,2.8,6.5,5.5,9.9,4.6c3.2-0.8,6.6-6,6.6-9.9c0-4.6-3-9.7-6.7-11.5c-3-1.4-3.6-1.4-6.8,0.1
	c-1.9,0.9-3.5,1.3-3.5,0.8c0-0.4-1.1-2-2.5-3.5c-1.7-1.9-3.4-2.6-6-2.6S461.2,401.7,459.5,403.6z M469.9,407.6
	c2.6,3.4,2.7,6.8,0.1,9.4c-2.7,2.7-5.5,2.5-7.9-0.6c-2.5-3.2-2.7-6.1-0.5-9.2C463.7,404.2,467.4,404.4,469.9,407.6z M485.2,411.7
	c1.1,1,1.8,3,1.8,5.4c0,6.8-6.8,8.8-10,2.9C473.5,413.4,479.8,406.8,485.2,411.7z"/>
<path class="st0" d="M463.7,408.7c-1.2,1.1-0.8,5,0.7,6.2c1.9,1.6,4.6,0.3,4.6-2.3C469,409.2,465.6,406.7,463.7,408.7z"/>
<path class="st0" d="M479,415c-0.8,1.6-0.6,2.4,1.1,4.1c1.9,1.9,2.3,2,3.6,0.6c2.1-2.1,0.9-6.7-1.7-6.7
	C480.9,413,479.6,413.9,479,415z"/>
<path class="st0" d="M517.1,414.7c-0.6,2.1-1.7,6.8-2.7,10.5c-0.9,3.7-2.3,7.3-3,7.9c-1.9,1.5-6,1.5-8-0.2c-5.9-4.9-2.4-15.1,4.9-14
	c2.1,0.3,2.3-2.5,0.1-3.3c-2.9-1.1-4.5-0.6-7.5,2.3c-2.4,2.5-2.9,3.8-2.9,8c0,4.3,0.5,5.5,3.4,8.5c6.9,7.4,12.9,3.5,16.4-10.6
	c1.2-4.8,2.2-9.6,2.2-10.8C520,409.7,518.1,410.7,517.1,414.7z"/>
<path class="st0" d="M503.6,423.6c-1.1,2.9-0.6,5.3,1.5,6.8c1.2,0.8,2.7,1.2,3.4,0.9c1.4-0.5,3.5-5.4,3.5-7.9
	C512,421.3,504.4,421.5,503.6,423.6z"/>
<path class="st0" d="M872,444.4c-2.4,2.5-5.2,4.6-6.2,4.6c-1.9,0-2.4,1.5-0.9,2.4c0.4,0.3,1.4,2.6,2.1,5.1c0.9,3.2,1.6,4.2,2.1,3.3
	c0.5-0.7,0.9-2,0.9-2.8c0-1.3-0.1-1.3-1.1,0c-0.8,1.2-1,1.2-0.7,0.1c0.5-1.7,3.5-2.3,4.5-0.9c0.3,0.7,0.1,0.8-0.5,0.4
	c-0.7-0.4-1.2-0.3-1.2,0.2c0,0.6,0.6,1.2,1.4,1.5c0.7,0.3,1.8,2,2.5,3.7c0.9,2.8,0.9,3.1-0.4,2c-1.3-1.1-1.4-1-0.9,0.5
	c0.7,1.7,0.6,1.7-1.9,0c-2.3-1.5-2.7-1.5-2.7-0.2c0,0.8-0.3,2.2-0.6,3c-0.5,1.5,4.7,5.2,9.1,6.3c1.3,0.3,2.9,1.2,3.6,2
	c1.6,2,3.5,1.7,7.2-0.9c5.3-3.8,6.9-5.5,6.4-6.9c-0.4-0.9-0.6-0.7-0.6,0.4c-0.1,1.1-0.9,1.8-2.2,1.8s-1.8,0.4-1.3,1.2
	c0.5,0.7,0.2,0.9-0.7,0.6c-0.8-0.3-3.7-1.3-6.5-2.2l-5.1-1.7l-0.7-6.1c-0.3-3.3-0.6-7-0.6-8.1c0-2,0.1-2,1.4-0.2
	c1.2,1.7,1.3,1.7,1.9-0.6c1.2-4.6,10.1-7.8,11.4-4.2c0.3,1,1.2,2.5,1.9,3.4c0.8,0.8,1.8,4,2.3,7c0.8,4.8,0.9,5,1,1.6
	c0-2,0.6-3.7,1.1-3.7c0.8,0,0.8-0.4,0-1.3c-0.5-0.6-2.5-3.5-4.3-6.2c-3.3-5.2-7.9-8.2-13.9-9.1C876.9,439.9,876,440.4,872,444.4z
	 M875.3,468.7c-0.7,0.2-1.9,0.2-2.5,0c-0.7-0.3-0.2-0.5,1.2-0.5S875.9,468.4,875.3,468.7z"/>
<path class="st0" d="M902.5,595c0.3,0.5,0.8,1,1.1,1c0.2,0,0.4-0.5,0.4-1c0-0.6-0.5-1-1.1-1C902.4,594,902.2,594.4,902.5,595z"/>
<path class="st0" d="M473,980.2c1.5,1.7,2.2,2,3.2,1c0.9-0.9,0.8-1.2-0.8-1.2c-1.1,0-2.5-0.4-3.2-1C471.5,978.5,471.9,979,473,980.2
	z"/>
<path class="st0" d="M683.4,31.1c-1,1.6,0.8,2.5,12.6,6.3c23.6,7.7,49,11.4,49.8,7.3c0.3-1.3-1-2.4-5-4.1c-6.6-3-27.7-7.9-34-7.9
	c-2.6,0.1-4.6-0.3-4.3-0.7c0.5-0.8-7.7-2-14.2-2C686,30,683.8,30.5,683.4,31.1z"/>
<path class="st0" d="M757.5,48c1.7,1.6,4.8,3.7,7,4.6c3.7,1.5,3.8,1.5,2.5-0.2c-1.8-2.1-9.9-7.4-11.4-7.4
	C755,45,755.9,46.3,757.5,48z"/>
<path class="st0" d="M600,61.5c0,0.8,0.5,1.5,1,1.5c0.6,0,1-0.7,1-1.5s-0.4-1.5-1-1.5C600.5,60,600,60.7,600,61.5z"/>
<path class="st0" d="M608.5,62c-0.3,0.6,0.1,0.7,0.9,0.4c1.8-0.7,2.1-1.4,0.7-1.4C609.5,61,608.8,61.4,608.5,62z"/>
<path class="st0" d="M599.7,66.1c0.7,0.7,1.5,1,1.8,0.7s-0.2-0.9-1.2-1.2C598.9,65,598.8,65.1,599.7,66.1z"/>
<path class="st0" d="M370.9,194.7c-8.1,5-7.7,22.6,0.6,29.1c2,1.6,4.2,2.2,7.5,2.2c4.3,0,5.1-0.4,8.3-3.9c6.5-7.2,5.9-18.1-1.3-25.3
	c-3.2-3.3-4.4-3.8-8.1-3.8C375.5,193,372.3,193.8,370.9,194.7z M374,210.9c0,0.6-0.4,1.3-1,1.6c-0.5,0.3-1-0.1-1-0.9
	c0-0.9,0.5-1.6,1-1.6C373.6,210,374,210.4,374,210.9z M370.4,215.1c-0.3,0.5-1,0.7-1.5,0.3c-0.5-0.3-0.7-1-0.3-1.5
	c0.3-0.5,1-0.7,1.5-0.3C370.6,213.9,370.8,214.6,370.4,215.1z"/>
<path class="st0" d="M211,205.5c-0.7,0.9-1.1,1.7-0.9,2c0.3,0.2,1-0.5,1.7-1.5C213.2,203.6,212.8,203.4,211,205.5z"/>
<path class="st0" d="M205.4,212.2l-1.9,2.3l2.3-1.9c2.1-1.8,2.7-2.6,1.9-2.6C207.5,210,206.5,211,205.4,212.2z"/>
<path class="st0" d="M341.1,239.3c-9.4,4.8-9.4,23.9,0.1,29.7c9.4,5.7,18.9-1.1,18.9-13.6C360.1,243.2,350,234.7,341.1,239.3z
	 M343,255.9c0,0.6-0.4,1.3-1,1.6c-0.5,0.3-1-0.1-1-0.9c0-0.9,0.5-1.6,1-1.6C342.6,255,343,255.4,343,255.9z M339.8,260.6
	c-1,1-2.8-0.6-2.8-2.4c0-1.5,0.1-1.5,1.7,0.1C339.6,259.2,340.1,260.2,339.8,260.6z"/>
<path class="st0" d="M221.7,250c-7.7,6.1-6.8,22.2,1.6,28.4c10.8,7.9,23.1-7,17.2-21C237,249,227.7,245.3,221.7,250z M225,266.2
	c0,1.6-0.3,1.9-1.1,1.1c-0.6-0.6-0.8-1.6-0.5-2.2C224.5,263.4,225,263.8,225,266.2z M222,269.1c0,1.1-0.4,1.7-1,1.4
	c-0.5-0.3-1-1.3-1-2.1c0-0.8,0.5-1.4,1-1.4C221.6,267,222,267.9,222,269.1z"/>
<path class="st0" d="M211,307c-1.4,0.6-3.6,2.7-5,4.7c-5.3,7.8-2,21.3,6.4,25.6c3.6,1.9,4.2,1.9,8,0.6c7.9-2.8,11-13.8,6.4-22.9
	C223.2,308,216.8,304.8,211,307z M212.4,324.5c-0.4,0.8-0.8,1.5-1,1.5s-0.4-0.7-0.4-1.5s0.4-1.5,1-1.5
	C212.5,323,212.7,323.7,212.4,324.5z M209.5,326c0.3,0.5,0.3,1.5-0.1,2.1c-0.6,1.1-2.3-0.6-2.4-2.4C207,324.7,208.8,324.8,209.5,326
	z"/>
<path class="st0" d="M156.1,324.9c-3.2,2-12.5,43.3-16.3,71.8c-1.9,14.5-2.2,21.7-2.2,51.8c-0.1,30.4,0.2,37.4,2.2,53.5
	c2.3,18.9,6.4,40.9,10.8,58.2c5.8,23,16.9,55.9,18.7,55.5c0.5-0.1,1.2,0.4,1.5,1.2s0,1.1-0.7,0.7c-1.3-0.9-1.4,0.4-0.1,2.4
	c0.9,1.3,1,1.3,1,0c0.1-0.9,0.6-0.5,1.5,1c0.7,1.4,1.1,3.6,0.8,4.9c-0.4,1.6-0.2,2.2,0.5,1.7c0.6-0.3,1.3-0.2,1.6,0.3
	c0.4,0.5,0.2,1.2-0.4,1.6c-1.6,1-0.1,2.5,2.4,2.5c3.9,0,3.7-3.3-0.6-13.8c-2.2-5.3-6.8-18.3-10.3-28.7
	c-16.4-49.2-23.3-95.5-22.2-148.5c0.8-36.9,4.8-64.9,14.2-99.8c1.4-5.1,2.5-10.6,2.5-12.2C161,325.8,158.3,323.6,156.1,324.9z"/>
<path class="st0" d="M203.2,367c-8,4.9-8.3,18.9-0.6,26.5c4.5,4.5,10.6,4.9,15.2,1c7.8-6.5,5.5-23.2-3.8-28
	C210.1,364.5,207.1,364.6,203.2,367z M205.6,383.7c-1,1-1.9-0.5-1-1.8c0.6-1.1,0.8-1.1,1.2,0C206,382.6,205.9,383.4,205.6,383.7z
	 M202.9,386.9c-1.5,0.5-2.2-0.6-1.4-1.9c0.6-0.9,1-0.9,1.6,0.1C203.6,385.9,203.5,386.6,202.9,386.9z"/>
<path class="st0" d="M104.7,614.1c-2.3,1.3-5.6,8.4-5.7,11.9c0,11.1,9.7,20.7,17.6,17.1c8.7-3.9,8.4-21.7-0.5-28
	C113,612.8,107.6,612.4,104.7,614.1z M108,630.6c0,0.8-0.5,1.2-1,0.9c-0.6-0.4-0.8-1.1-0.5-1.6C107.4,628.5,108,628.8,108,630.6z
	 M106,633c0,0.5-0.4,1-1,1c-0.5,0-1-0.5-1-1c0-0.6,0.5-1,1-1C105.6,632,106,632.4,106,633z"/>
<path class="st0" d="M846.5,642c-0.3,1,0.1,3.3,1,5c4.5,8.6,16.5,43.3,22.5,64.5c7.4,26.5,13,58.3,15,84.8c2.1,27.1,1.2,65.3-2,88
	c-3.8,26.3-7.6,42.5-16.2,68.9c-6,18.3-6.1,18.7-4.4,21.3c3.7,5.6,6.2,2.2,12.8-17.4c4.4-13.1,11.9-43.1,14.2-56.6
	c3.1-18.5,4.7-36.7,5.3-59c1.3-51-5.4-97.4-21.3-148.3c-4.3-13.8-16.5-45.3-19.4-50C851.7,639.5,847.5,638.7,846.5,642z"/>
<path class="st0" d="M130.9,667.8c-5.6,5-5.3,16.5,0.7,23.2c6.1,6.7,13.7,6.2,17.5-1.1c3.7-7.4,2-16-4.5-21.7
	C139.8,664,135.3,663.9,130.9,667.8z M133.5,685c0.3,0.5-0.1,1-1,1s-1.3-0.5-1-1c0.3-0.6,0.8-1,1-1S133.2,684.4,133.5,685z"/>
<path class="st0" d="M162.7,715.4c-3.1,2.9-5.1,9.6-4.1,13.9c3.2,14.9,17.8,19.3,23,7c1.9-4.4,1.7-9-0.5-13.8
	C177.1,713.6,168.3,710.2,162.7,715.4z M165,733c0,0.5-0.4,1-1,1c-0.5,0-1-0.5-1-1c0-0.6,0.5-1,1-1C164.6,732,165,732.4,165,733z"/>
<path class="st0" d="M199.9,755.5c-5.6,3.1-7.5,12.5-4,20c6.6,14.6,22.7,11.5,22.4-4.1c-0.1-2.9-0.8-6.5-1.6-8
	C212.8,756,205.3,752.4,199.9,755.5z M201,775c0,0.5-0.4,1-1,1c-0.5,0-1-0.5-1-1c0-0.6,0.5-1,1-1C200.6,774,201,774.4,201,775z"/>
<path class="st0" d="M954.3,879c0,2.3,0.3,2.8,0.9,1.6c0.5-0.9,0.5-2.3,0-3.2C954.6,876.2,954.3,876.7,954.3,879z"/>
<path class="st0" d="M950.5,888c-0.3,0.6,0.1,0.7,0.9,0.4c1.8-0.7,2.1-1.4,0.7-1.4C951.5,887,950.8,887.4,950.5,888z"/>
<path class="st0" d="M795.7,895.7c-3.1,2-6.7,8.7-6.7,12.5c0,10.9,10.3,20.9,19.5,18.8c12.6-2.8,14-21.6,2.3-30.3
	C807.1,893.9,799.3,893.4,795.7,895.7z M799,913.4c0,0.8-0.4,1.8-1,2.1c-0.5,0.3-1-0.3-1-1.4c0-1.2,0.5-2.1,1-2.1
	C798.6,912,799,912.6,799,913.4z M798.4,919.6c0.4,1.1,0.1,1.4-1.1,1.2c-0.9-0.2-1.8-0.9-2.1-1.6
	C794.6,917.4,797.7,917.7,798.4,919.6z"/>
<path class="st0" d="M216.1,898.3c-7,3.5-8.7,13.6-3.8,22c5,8.4,14.8,9.9,19,2.8c4.2-7.2,0.9-19.9-6.2-23.9
	C220.7,896.7,219.4,896.6,216.1,898.3z M217.7,915.2c-0.3,0.8-0.6,0.5-0.6-0.6c-0.1-1.1,0.2-1.7,0.5-1.3
	C217.9,913.6,218,914.5,217.7,915.2z M217,918c0,0.5-0.7,1-1.5,1s-1.5-0.5-1.5-1c0-0.6,0.7-1,1.5-1S217,917.4,217,918z"/>
<path class="st0" d="M260.1,923.6c-6.9,4.9-6.5,17.3,0.9,24.6c3.1,3.1,4.5,3.8,7.7,3.8c5.3,0,8.9-2.9,10.4-8.2
	C282.5,930.9,269.5,917.1,260.1,923.6z M264,939c0,0.5-0.4,1-1,1c-0.5,0-1-0.5-1-1c0-0.6,0.5-1,1-1C263.6,938,264,938.4,264,939z
	 M262,943c0,0.5-0.4,1-1,1c-0.5,0-1-0.5-1-1c0-0.6,0.5-1,1-1C261.6,942,262,942.4,262,943z"/>
<path class="st0" d="M305.8,941.9c-3.1,2.8-3.3,3.3-3.3,9.9c0,5.9,0.4,7.4,2.8,10.9c3.1,4.5,6.3,6.3,11.2,6.3c5.2,0,8.6-3.5,9.6-9.8
	C328.3,944.7,315.2,933.5,305.8,941.9z M309.7,957.2c-0.3,0.8-0.6,0.5-0.6-0.6c-0.1-1.1,0.2-1.7,0.5-1.3
	C309.9,955.6,310,956.5,309.7,957.2z M309,960.5c0,0.8-0.4,1.5-1,1.5c-0.5,0-1-0.7-1-1.5s0.5-1.5,1-1.5
	C308.6,959,309,959.7,309,960.5z"/>
<path class="st0" d="M788.5,956c-5.4,2.2-9.1,10.5-7.6,17c2.2,9.5,8.3,15.3,16.3,15.4c4.5,0.1,5.3-0.3,8.3-3.5
	c4.2-4.7,5.3-10.1,3.1-16.7C805.4,958.7,795.9,952.9,788.5,956z M790,974.5c0,0.8-0.4,1.5-1,1.5c-0.5,0-1-0.7-1-1.5s0.5-1.5,1-1.5
	C789.6,973,790,973.7,790,974.5z M789.5,980.8c0,1.8-2,1.5-2.3-0.4c-0.3-1,0.1-1.5,1-1.2C788.9,979.5,789.5,980.2,789.5,980.8z"/>
<path class="st0" d="M273.6,1009.2c-0.3,1.3-0.1,2.4,0.4,2.6c0.6,0.2,1,0.9,1,1.5c0,1.4,8.2,6.9,22.1,14.9
	c27.7,16,58.5,27.2,90.9,33c10.8,1.9,16.1,2.2,39,2.3c17.4,0,29.3-0.5,34.5-1.3c13.6-2.2,32.4-7.2,45.5-11.9
	c20.1-7.3,22.7-9.1,19.5-13.9c-2-3.1-2.9-3-11.7,1c-14.9,6.8-40.8,13.9-60.8,16.7c-11.1,1.5-43.1,1.5-54,0
	c-41.2-5.7-72.3-16.9-109.6-39.2c-7.2-4.4-13.8-7.9-14.6-7.9C274.9,1007,274,1008,273.6,1009.2z"/>
<path class="st0" d="M637.4,1012.4c-2.6,2.6-3.4,4.3-3.5,7.2c-0.2,6.7,0.2,8.8,2.4,12.9c5.7,10.4,18.1,11.5,22.7,2
	c3.1-6.5,2.1-13.8-2.7-19.5C650.5,1008,642.8,1007,637.4,1012.4z M642.4,1027.5c-0.4,0.8-0.8,1.5-1,1.5s-0.4-0.7-0.4-1.5
	s0.4-1.5,1-1.5C642.5,1026,642.7,1026.7,642.4,1027.5z M641.7,1033.6c-0.9,0.9-2.8-0.6-2.1-1.8c0.4-0.6,1-0.6,1.7,0.1
	C641.9,1032.5,642.1,1033.2,641.7,1033.6z"/>
<path class="st0" d="M771.4,1015.6c-9.7,4.8-8.8,21.7,1.6,28.9c11.9,8.3,24.5-4.8,18.5-19.2c-2-4.8-4.1-7.1-8.7-9.4
	C778.3,1013.6,775.5,1013.5,771.4,1015.6z M774,1033.5c0,0.8-0.4,1.5-1,1.5c-0.5,0-1-0.7-1-1.5s0.5-1.5,1-1.5
	C773.6,1032,774,1032.7,774,1033.5z M773,1039.6c0,0.8-0.4,1.2-1,0.9c-0.5-0.3-1-1.3-1-2.1c0-0.8,0.5-1.2,1-0.9
	C772.6,1037.8,773,1038.8,773,1039.6z"/>
<path class="st0" d="M608.1,1050.3c-5.2,1.8-7.4,5.5-7.4,12.4c0,6.5,1.6,10.4,6.1,14.7c3.5,3.2,10.5,4.6,14.1,2.6
	c8.4-4.4,7.8-20.7-1-27.2C615.5,1049.5,612.3,1048.9,608.1,1050.3z M608.7,1069.2c-0.3,0.7-0.5,0.2-0.5-1.2s0.2-1.9,0.5-1.3
	C608.9,1067.4,608.9,1068.6,608.7,1069.2z M609,1073.5c0,0.8-0.4,1.5-0.9,1.5s-1.1-0.7-1.5-1.5c-0.3-0.9,0-1.5,0.9-1.5
	C608.3,1072,609,1072.7,609,1073.5z"/>
<path class="st0" d="M302.5,1068c1,1.1,2,2,2.3,2s-0.3-0.9-1.3-2s-2-2-2.3-2C300.9,1066,301.5,1066.9,302.5,1068z"/>
<path class="st0" d="M306,1070.7c0,0.4,1.5,1.8,3.3,3.1c1.7,1.2,4.8,3.5,6.8,5c20.4,15.4,43.3,30.7,57.4,38.2
	c11.5,6.2,10.2,4.7-2-2.3c-10-5.7-31.3-19.2-32.5-20.6c-0.3-0.3-3.2-2.4-6.5-4.5c-3.3-2.2-10.6-7.5-16.2-11.8
	C310.6,1073.5,306,1070.3,306,1070.7z"/>
<path class="st0" d="M567,1085.3c-5.1,3.9-6.5,12.1-3.5,19.4c2.1,4.9,4.2,7.1,8.4,8.9c4.3,1.8,6.5,1.8,10.1-0.1
	c8.3-4.3,7.8-19.5-0.9-26.8c-2.5-2.1-4.3-2.7-7.9-2.7C570.6,1084,567.8,1084.6,567,1085.3z M571,1101.4c0,0.8-0.4,1.8-1,2.1
	c-0.5,0.3-1-0.3-1-1.4c0-1.2,0.5-2.1,1-2.1C570.6,1100,571,1100.6,571,1101.4z M570,1106.6c0,0.9-0.5,1.4-1.2,1.2
	c-1.8-0.6-2.1-2.8-0.4-2.8C569.3,1105,570,1105.7,570,1106.6z"/>
<path class="st0" d="M525.4,1111.6c-8.7,4.2-8.4,19.2,0.5,26.7c6.4,5.3,15.6,2.8,18.1-4.9C548,1121.5,535.4,1106.7,525.4,1111.6z
	 M528,1128.6c0,0.8-0.4,1.4-1,1.4c-0.5,0-1-0.9-1-2.1c0-1.1,0.5-1.7,1-1.4C527.6,1126.8,528,1127.8,528,1128.6z M527,1133.6
	c0,0.9-0.5,1.4-1.2,1.2c-1.8-0.6-2.1-2.8-0.4-2.8C526.3,1132,527,1132.7,527,1133.6z"/>
<path class="st0" d="M387.7,1124.1c0.7,0.7,1.5,1,1.8,0.7s-0.2-0.9-1.2-1.2C386.9,1123,386.8,1123.1,387.7,1124.1z"/>
<path class="st0" d="M391,1125.5c0,0.2,2.3,1.6,5,3c2.8,1.4,5,2.3,5,2c0-0.2-2.2-1.6-5-3C393.3,1126.1,391,1125.2,391,1125.5z"/>
</svg>
